<svg xmlns="http://www.w3.org/2000/svg" width="38.973" height="40.982" viewBox="0 0 38.973 40.982"><g transform="translate(-2104.671 -5553.041)"><path d="M2124.157,5563.638v8.576l6.769,3.24" fill="none" stroke="currentColor" stroke-linecap="round" stroke-linejoin="round" stroke-width="4"/><path d="M2118.059,5558.278a15.162,15.162,0,0,1,12.2,0" fill="none" stroke="currentColor" stroke-linecap="round" stroke-linejoin="round" stroke-width="4"/><path d="M2130.257,5558.278a15.256,15.256,0,0,1,8.02,8.28" fill="none" stroke="currentColor" stroke-linecap="round" stroke-linejoin="round" stroke-width="4"/><path d="M2110.039,5566.558a15.255,15.255,0,0,1,8.02-8.28" fill="none" stroke="currentColor" stroke-linecap="round" stroke-linejoin="round" stroke-width="4"/><path d="M2110.039,5566.558a15.217,15.217,0,1,0,28.238,0" fill="none" stroke="currentColor" stroke-linecap="round" stroke-linejoin="round" stroke-width="4"/><path d="M2130.257,5558.278l2.066-2.066a4,4,0,0,1,5.657,0l2.493,2.493a4,4,0,0,1,0,5.657l-2.2,2.2" fill="none" stroke="currentColor" stroke-linecap="round" stroke-linejoin="round" stroke-width="4"/><path d="M2118.059,5558.278l-2.066-2.066a4,4,0,0,0-5.657,0l-2.493,2.493a4,4,0,0,0,0,5.657l2.2,2.2" fill="none" stroke="currentColor" stroke-linecap="round" stroke-linejoin="round" stroke-width="4"/><line x1="4.828" y1="6.254" transform="translate(2132.615 5584.963)" fill="none" stroke="currentColor" stroke-linecap="round" stroke-linejoin="round" stroke-width="4"/><line y1="6.254" x2="4.828" transform="translate(2110.873 5584.963)" fill="none" stroke="currentColor" stroke-linecap="round" stroke-linejoin="round" stroke-width="4"/></g></svg>