<svg xmlns="http://www.w3.org/2000/svg" width="37.164" height="28.9" viewBox="0 0 37.164 28.9"><g transform="translate(-563.803 -8095.76)"><path d="M117.9,1724.89H84.868a2.065,2.065,0,1,1,0-4.13H117.9a2.065,2.065,0,1,1,0,4.13Z" transform="translate(481 6375)" fill="#656d79"/><path d="M117.9,1737.27H84.868a2.065,2.065,0,1,1,0-4.13H117.9a2.065,2.065,0,1,1,0,4.13Z" transform="translate(481 6375)" fill="#656d79"/><path d="M106.854,1749.66H84.868a2.065,2.065,0,1,1,0-4.13h21.986a2.065,2.065,0,1,1,0,4.13Z" transform="translate(481 6375)" fill="#656d79"/></g></svg>