<svg xmlns="http://www.w3.org/2000/svg" width="39.844" height="31.875" viewBox="0 0 39.844 31.875"><g transform="translate(-735.773 -8092.785)"><path d="M278.681,1749.66a1.992,1.992,0,0,1-1.409-3.4l12.537-12.537-12.537-12.537a1.992,1.992,0,1,1,2.817-2.817l13.943,13.942a2,2,0,0,1,0,2.82l-13.945,13.945A1.966,1.966,0,0,1,278.681,1749.66Z" transform="translate(481 6375)" fill="#656d79"/><path d="M292.624,1735.71H256.765a1.992,1.992,0,1,1,0-3.984h35.859a1.992,1.992,0,1,1,0,3.984Z" transform="translate(481 6375)" fill="#656d79"/></g></svg>