<svg xmlns="http://www.w3.org/2000/svg" width="36.214" height="50.625" viewBox="0 0 36.214 50.625"><g transform="translate(-1079.429 -7217.339)"><g transform="translate(480.541 6455)"><path d="M632.753,804.459l-26.813-.044a1.5,1.5,0,0,1-1.5-1.5h0a1.5,1.5,0,0,1,1.5-1.5l26.813.044Z" fill="#656d79"/><path d="M626.769,812.964H607.221a8.331,8.331,0,0,1-8.319-8.82l1.56-26.7a6.19,6.19,0,0,1,6.174-5.824h20.718a6.191,6.191,0,0,1,6.174,5.823l1.56,26.7a8.331,8.331,0,0,1-8.319,8.819ZM606.636,775.62a2.187,2.187,0,0,0-2.181,2.058l-1.56,26.7a4.332,4.332,0,0,0,4.326,4.587h19.548a4.332,4.332,0,0,0,4.326-4.586l-1.56-26.7a2.186,2.186,0,0,0-2.181-2.057H606.636Z" fill="#656d79"/><path d="M624.176,781.192h0a2,2,0,0,1-2-2v-7.62a5.162,5.162,0,0,0-4.509-5.208,5.015,5.015,0,0,0-5.51,4.985v7.843a2,2,0,0,1-2,2h0a2,2,0,0,1-2-2v-7.525a9.222,9.222,0,0,1,8.393-9.307,9.019,9.019,0,0,1,9.626,8.989v7.843A2,2,0,0,1,624.176,781.192Z" fill="#656d79"/></g></g></svg>