<svg xmlns="http://www.w3.org/2000/svg" width="34.002" height="37.829" viewBox="0 0 34.002 37.829"><g transform="translate(-563.803 -7734.859)"><path d="M104.1,1389.4a4.293,4.293,0,0,1-8.586,0c0-.086.02-.166.025-.251H91.527c0,.084-.013.166-.013.251a8.288,8.288,0,0,0,16.576,0c0-.084-.01-.167-.013-.251h-4.008C104.076,1389.23,104.1,1389.31,104.1,1389.4Z" transform="translate(481 6375)" fill="#656d79"/><path d="M114.805,1385.28h-2.168v-12.587a12.834,12.834,0,0,0-25.668,0v12.587H84.8a2,2,0,1,0,0,3.995h30.006a2,2,0,1,0,0-3.995Zm-6.163,0H90.965v-12.587a8.839,8.839,0,0,1,17.678,0v12.587Z" transform="translate(481 6375)" fill="#656d79"/></g></svg>