<svg xmlns="http://www.w3.org/2000/svg" width="40" height="34.063" viewBox="0 0 40 34.063"><g transform="translate(-3422.068 -6307.815)"><line y1="18.853" transform="translate(3442.068 6313.301)" fill="none" stroke="currentColor" stroke-linecap="round" stroke-linejoin="round" stroke-width="4"/><path d="M3442.068,6339.049c-1.591-1.57-5.017-2.66-9-2.66a16.4,16.4,0,0,0-7.536,1.611.994.994,0,0,1-1.464-.881v-23.046a1.985,1.985,0,0,1,.6-1.436c1.763-1.7,4.862-2.822,8.4-2.822a15.242,15.242,0,0,1,4.55.671" fill="none" stroke="currentColor" stroke-linecap="round" stroke-linejoin="round" stroke-width="4"/><line y2="18.853" transform="translate(3442.068 6313.301)" fill="none" stroke="currentColor" stroke-linecap="round" stroke-linejoin="round" stroke-width="4"/><path d="M3442.068,6339.049c1.592-1.57,5.018-2.66,9-2.66A16.4,16.4,0,0,1,3458.6,6338a.994.994,0,0,0,1.464-.881v-23.046a1.989,1.989,0,0,0-.6-1.437c-1.763-1.694-4.862-2.821-8.4-2.821-3.982,0-7.408,1.428-9,3.486" fill="none" stroke="currentColor" stroke-linecap="round" stroke-linejoin="round" stroke-width="4"/></g></svg>