<svg xmlns="http://www.w3.org/2000/svg" width="40" height="37.853" viewBox="0 0 40 37.853"><g transform="translate(-3233.795 -1196.163)"><path d="M3267.111,1201.82h1.684a3,3,0,0,1,3,3v24.2a3,3,0,0,1-3,3h-30a3,3,0,0,1-3-3v-24.2a3,3,0,0,1,3-3h22.04" fill="none" stroke="currentColor" stroke-linecap="round" stroke-linejoin="round" stroke-width="4"/><line x2="0.006" y2="7.531" transform="translate(3261.473 1198.164)" fill="none" stroke="currentColor" stroke-linecap="round" stroke-linejoin="round" stroke-width="4"/><line x1="0.006" y2="7.531" transform="translate(3246.112 1198.164)" fill="none" stroke="currentColor" stroke-linecap="round" stroke-linejoin="round" stroke-width="4"/><path d="M3246.112,1214.762" fill="none" stroke="currentColor" stroke-linecap="round" stroke-linejoin="round" stroke-width="4"/><line y1="0.046" transform="translate(3246.112 1214.739)" fill="none" stroke="currentColor" stroke-linecap="round" stroke-linejoin="round" stroke-width="4"/><path d="M3246.112,1222.564" fill="none" stroke="currentColor" stroke-linecap="round" stroke-linejoin="round" stroke-width="4"/><line y1="0.046" transform="translate(3246.112 1222.541)" fill="none" stroke="currentColor" stroke-linecap="round" stroke-linejoin="round" stroke-width="4"/><path d="M3253.795,1214.762" fill="none" stroke="currentColor" stroke-linecap="round" stroke-linejoin="round" stroke-width="4"/><line x1="0.047" y1="0.046" transform="translate(3253.772 1214.739)" fill="none" stroke="currentColor" stroke-linecap="round" stroke-linejoin="round" stroke-width="4"/><path d="M3253.795,1222.564" fill="none" stroke="currentColor" stroke-linecap="round" stroke-linejoin="round" stroke-width="4"/><line x1="0.047" y1="0.046" transform="translate(3253.772 1222.541)" fill="none" stroke="currentColor" stroke-linecap="round" stroke-linejoin="round" stroke-width="4"/><path d="M3253.795,1214.762" fill="none" stroke="currentColor" stroke-linecap="round" stroke-linejoin="round" stroke-width="4"/><path d="M3253.795,1222.564" fill="none" stroke="currentColor" stroke-linecap="round" stroke-linejoin="round" stroke-width="4"/><line y1="0.046" transform="translate(3261.479 1214.739)" fill="none" stroke="currentColor" stroke-linecap="round" stroke-linejoin="round" stroke-width="4"/><line y1="0.046" transform="translate(3261.479 1222.541)" fill="none" stroke="currentColor" stroke-linecap="round" stroke-linejoin="round" stroke-width="4"/></g></svg>