<svg xmlns="http://www.w3.org/2000/svg" width="40" height="37.853" viewBox="0 0 40 37.853"><g transform="translate(-3233.795 -3820.681)"><path d="M3267.111,3826.338h1.684a3,3,0,0,1,3,3v24.2a3,3,0,0,1-3,3h-30a3,3,0,0,1-3-3v-24.2a3,3,0,0,1,3-3h22.04" fill="none" stroke="currentColor" stroke-linecap="round" stroke-linejoin="round" stroke-width="4"/><line x2="0.006" y2="7.531" transform="translate(3261.473 3822.683)" fill="none" stroke="currentColor" stroke-linecap="round" stroke-linejoin="round" stroke-width="4"/><line x1="0.006" y2="7.531" transform="translate(3246.112 3822.683)" fill="none" stroke="currentColor" stroke-linecap="round" stroke-linejoin="round" stroke-width="4"/><path d="M3246.112,3839.28" fill="none" stroke="currentColor" stroke-linecap="round" stroke-linejoin="round" stroke-width="4"/><line y1="0.046" transform="translate(3246.112 3839.257)" fill="none" stroke="currentColor" stroke-linecap="round" stroke-linejoin="round" stroke-width="4"/><path d="M3246.112,3847.083" fill="none" stroke="currentColor" stroke-linecap="round" stroke-linejoin="round" stroke-width="4"/><line y1="0.046" transform="translate(3246.112 3847.06)" fill="none" stroke="currentColor" stroke-linecap="round" stroke-linejoin="round" stroke-width="4"/><path d="M3253.795,3839.28" fill="none" stroke="currentColor" stroke-linecap="round" stroke-linejoin="round" stroke-width="4"/><line x1="0.047" y1="0.046" transform="translate(3253.772 3839.257)" fill="none" stroke="currentColor" stroke-linecap="round" stroke-linejoin="round" stroke-width="4"/><path d="M3253.795,3847.083" fill="none" stroke="currentColor" stroke-linecap="round" stroke-linejoin="round" stroke-width="4"/><line x1="0.047" y1="0.046" transform="translate(3253.772 3847.06)" fill="none" stroke="currentColor" stroke-linecap="round" stroke-linejoin="round" stroke-width="4"/><path d="M3253.795,3839.28" fill="none" stroke="currentColor" stroke-linecap="round" stroke-linejoin="round" stroke-width="4"/><path d="M3253.795,3847.083" fill="none" stroke="currentColor" stroke-linecap="round" stroke-linejoin="round" stroke-width="4"/><line y1="0.046" transform="translate(3261.479 3839.257)" fill="none" stroke="currentColor" stroke-linecap="round" stroke-linejoin="round" stroke-width="4"/><line y1="0.046" transform="translate(3261.479 3847.06)" fill="none" stroke="currentColor" stroke-linecap="round" stroke-linejoin="round" stroke-width="4"/></g></svg>