<svg xmlns="http://www.w3.org/2000/svg" width="44.584" height="37.765" viewBox="0 0 44.584 37.765"><g transform="translate(-2289.857 -5741.634)"><path d="M2298.3,5771.522a3.972,3.972,0,0,0,2.144.623h16.171a4,4,0,0,0,4-4v-3.611l8.918,4.562a2,2,0,0,0,2.911-1.781V5752.8a2,2,0,0,0-2.911-1.781l-8.918,4.562v-3.611a3.98,3.98,0,0,0-.58-2.075" fill="none" stroke="currentColor" stroke-linecap="round" stroke-linejoin="round" stroke-width="4"/><path d="M2313.015,5747.974h-12.574a4,4,0,0,0-4,4v13.386" fill="none" stroke="currentColor" stroke-linecap="round" stroke-linejoin="round" stroke-width="4"/><line x1="32.637" y2="32.637" transform="translate(2292.421 5744.198)" fill="none" stroke="currentColor" stroke-linecap="round" stroke-linejoin="round" stroke-width="3.626"/></g></svg>