<svg xmlns="http://www.w3.org/2000/svg" width="40" height="33.04" viewBox="0 0 40 33.04"><g transform="translate(-3045.522 -1385.798)"><path d="M3073.394,1391.1l-.6-1.148a4,4,0,0,0-3.546-2.15H3061.8a4,4,0,0,0-3.546,2.15l-.6,1.148a4,4,0,0,1-3.547,2.151h-2.582a4,4,0,0,0-4,4v15.591a4,4,0,0,0,4,4h28a4,4,0,0,0,4-4v-15.591a4,4,0,0,0-4-4h-2.581A4,4,0,0,1,3073.394,1391.1Z" fill="none" stroke="currentColor" stroke-linecap="round" stroke-linejoin="round" stroke-width="4"/><circle cx="6.698" cy="6.698" r="6.698" transform="translate(3058.825 1396.996)" fill="none" stroke="currentColor" stroke-linecap="round" stroke-linejoin="round" stroke-width="4"/></g></svg>