<svg xmlns="http://www.w3.org/2000/svg" width="41.485" height="37.536" viewBox="0 0 41.485 37.536"><g transform="translate(-734.479 -7404.122)"><g transform="translate(480.541 6455)"><path d="M287.608,974.8H269.655a3.87,3.87,0,0,1-3.85-3.527l-5.437-18.2h-4.455a1.976,1.976,0,0,1,0-3.952h5.926a1.976,1.976,0,0,1,1.893,1.41l5.926,19.842a1.967,1.967,0,0,1,.083.565l17.866-.087c0-.183-.062-.278-.011-.453l3.237-11.4H275.667a1.975,1.975,0,0,1,0-3.951h17.78a1.976,1.976,0,0,1,1.9,2.515l-3.889,13.7A3.867,3.867,0,0,1,287.608,974.8Z" fill="#656d79"/><circle cx="3.951" cy="3.951" r="3.951" transform="translate(263.816 978.756)" fill="#656d79"/><path d="M285.546,982.707a3.951,3.951,0,1,1,3.951,3.951A3.951,3.951,0,0,1,285.546,982.707Z" fill="#656d79"/></g></g></svg>