<svg xmlns="http://www.w3.org/2000/svg" width="39.179" height="39.179" viewBox="0 0 39.179 39.179"><g transform="translate(-903.964 -7911.651)"><path d="M434.717,1575.83a1.96,1.96,0,0,1-1.959-1.959v-5.877H430.8a7.844,7.844,0,0,1-7.836-7.836v-15.671a7.844,7.844,0,0,1,7.836-7.836h23.507a7.844,7.844,0,0,1,7.836,7.836v15.671a7.844,7.844,0,0,1-7.836,7.836H448.95l-13.261,7.577A1.888,1.888,0,0,1,434.717,1575.83Zm-3.917-35.26a3.922,3.922,0,0,0-3.918,3.918v15.671a3.922,3.922,0,0,0,3.918,3.918h3.918a1.958,1.958,0,0,1,1.959,1.959v4.46l10.782-6.161a1.964,1.964,0,0,1,.972-.258h5.877a3.922,3.922,0,0,0,3.918-3.918v-15.671a3.922,3.922,0,0,0-3.918-3.918H430.8Z" transform="translate(481 6375)" fill="#656d79"/><circle cx="1.959" cy="1.959" r="1.959" transform="translate(913.342 7925.371)" fill="#656d79"/><circle cx="1.959" cy="1.959" r="1.959" transform="translate(921.865 7925.371)" fill="#656d79"/><path d="M449.387,1552.33a1.959,1.959,0,1,1,1.959,1.959A1.959,1.959,0,0,1,449.387,1552.33Z" transform="translate(481 6375)" fill="#656d79"/></g></svg>