<svg xmlns="http://www.w3.org/2000/svg" width="40" height="34.587" viewBox="0 0 40 34.587"><g transform="translate(-2104.158 -3822.315)"><path d="M2113.694,3824.315h-3.536a4,4,0,0,0-4,4v16.518a4,4,0,0,0,4,4h6.274a4,4,0,0,1,2.828,1.172l4.9,4.9,4.9-4.9a4,4,0,0,1,2.828-1.172h6.274a4,4,0,0,0,4-4v-16.518a4,4,0,0,0-4-4h-19.581" fill="none" stroke="currentColor" stroke-linecap="round" stroke-linejoin="round" stroke-width="4"/><ellipse cx="0.435" cy="0.454" rx="0.435" ry="0.454" transform="translate(2131.843 3836.759)" fill="none" stroke="currentColor" stroke-linecap="round" stroke-linejoin="round" stroke-width="4"/><ellipse cx="0.435" cy="0.454" rx="0.435" ry="0.454" transform="translate(2116.315 3836.759)" fill="none" stroke="currentColor" stroke-linecap="round" stroke-linejoin="round" stroke-width="4"/><ellipse cx="0.435" cy="0.454" rx="0.435" ry="0.454" transform="translate(2124.079 3836.759)" fill="none" stroke="currentColor" stroke-linecap="round" stroke-linejoin="round" stroke-width="4"/></g></svg>