<svg xmlns="http://www.w3.org/2000/svg" width="39.54" height="39.54" viewBox="0 0 39.54 39.54"><g transform="translate(-905.016 -8266.43)"><path d="M443.786,1891.43a19.77,19.77,0,1,0,19.77,19.77A19.793,19.793,0,0,0,443.786,1891.43Zm0,35.59A15.816,15.816,0,1,1,459.6,1911.2,15.834,15.834,0,0,1,443.786,1927.02Z" transform="translate(481 6375)" fill="#656d79"/><path d="M449.717,1909.22h-3.954v-5.931a1.977,1.977,0,1,0-3.954,0v7.908a1.976,1.976,0,0,0,1.977,1.977h5.931a1.977,1.977,0,1,0,0-3.954Z" transform="translate(481 6375)" fill="#656d79"/></g></svg>