<svg xmlns="http://www.w3.org/2000/svg" width="45.77" height="31.84" viewBox="0 0 45.77 31.84"><g transform="translate(-902.593 -8625.23)"><path d="M452.438,2282.07h-19.9a10.959,10.959,0,0,1-10.945-10.945,3.872,3.872,0,0,1,.047-.561,1.5,1.5,0,0,1-.047-.434,11.953,11.953,0,0,1,11.94-11.94,11.464,11.464,0,0,1,3.813.654,15.9,15.9,0,1,1,19.466,22.28A10.482,10.482,0,0,1,452.438,2282.07Zm-18.9-19.9a7.969,7.969,0,0,0-7.96,7.96,2.664,2.664,0,0,1,.048.408l0,.1-.006.1c-.008.127-.021.253-.041.377a6.965,6.965,0,0,0,6.959,6.968h19.9a6.845,6.845,0,0,0,2.87-.647,11.928,11.928,0,1,0-15.071-15.292h0a1.99,1.99,0,0,1-2.845,1.067h0A7.912,7.912,0,0,0,433.533,2262.17Z" transform="translate(481 6375)" fill="#656d79"/></g></svg>