<svg xmlns="http://www.w3.org/2000/svg" width="38.224" height="38.226" viewBox="0 0 38.224 38.226"><g transform="translate(-910.268 -8444.564)"><path d="M457.537,2092.78a1.991,1.991,0,0,1-1.409-3.4l5.634-5.636a5.976,5.976,0,1,0-8.453-8.451l-5.634,5.634a1.992,1.992,0,1,1-2.817-2.817l5.634-5.634a9.96,9.96,0,1,1,14.087,14.085l-5.634,5.636A1.969,1.969,0,0,1,457.537,2092.78Z" transform="translate(481 6375)" fill="#656d79"/><path d="M439.224,2107.79a9.956,9.956,0,0,1-7.044-17l5.634-5.636a1.992,1.992,0,0,1,2.817,2.817L435,2093.609a5.976,5.976,0,0,0,8.453,8.451l5.634-5.634a1.992,1.992,0,0,1,2.817,2.817l-5.634,5.634A9.923,9.923,0,0,1,439.224,2107.79Z" transform="translate(481 6375)" fill="#656d79"/><path d="M444.858,2094.19a1.992,1.992,0,0,1-1.408-3.4l7.042-7.045a1.992,1.992,0,1,1,2.817,2.817l-7.042,7.044A1.963,1.963,0,0,1,444.858,2094.19Z" transform="translate(481 6375)" fill="#656d79"/></g></svg>