<svg xmlns="http://www.w3.org/2000/svg" width="38.256" height="38.262" viewBox="0 0 38.256 38.262"><g transform="translate(-1075.857 -8266.428)"><path d="M615.855,1929.69H602.048a7.2,7.2,0,0,1-7.191-7.191v-13.807a7.2,7.2,0,0,1,7.191-7.191h13.807a7.2,7.2,0,0,1,7.191,7.191V1922.5A7.2,7.2,0,0,1,615.855,1929.69Zm-13.807-24.16a3.168,3.168,0,0,0-3.164,3.164V1922.5a3.168,3.168,0,0,0,3.164,3.164h13.807a3.168,3.168,0,0,0,3.164-3.164v-13.807a3.168,3.168,0,0,0-3.164-3.164Z" transform="translate(481 6375)" fill="#656d79"/><path d="M627.606,1919.62a2.014,2.014,0,0,1-.677-3.911,3.245,3.245,0,0,0,2.157-3.045v-13.98a3.233,3.233,0,0,0-3.229-3.229H611.878a3.241,3.241,0,0,0-3.044,2.156,2.014,2.014,0,0,1-3.795-1.353,7.281,7.281,0,0,1,6.839-4.83h13.979a7.264,7.264,0,0,1,7.256,7.256v13.98a7.283,7.283,0,0,1-4.831,6.838A2.048,2.048,0,0,1,627.606,1919.62Z" transform="translate(481 6375)" fill="#656d79"/></g></svg>