<svg xmlns="http://www.w3.org/2000/svg" width="50" height="37.001" viewBox="0 0 50 37.001"><g transform="translate(-727.895 -7584.629)"><g transform="translate(480.541 6455)"><path d="M272.1,1156.85h0a1.5,1.5,0,0,1-.141-2.117l13-14.859a1.5,1.5,0,0,1,2.116-.141h0a1.5,1.5,0,0,1,.141,2.116l-13,14.859A1.506,1.506,0,0,1,272.1,1156.85Z" fill="#656d79"/><path d="M284.952,1159.14a4.947,4.947,0,1,1,4.947-4.947A4.953,4.953,0,0,1,284.952,1159.14Zm0-6.9a1.947,1.947,0,1,0,1.947,1.946A1.948,1.948,0,0,0,284.952,1152.24Z" fill="#656d79"/><path d="M273.422,1147.37a4.947,4.947,0,1,1,4.947-4.947A4.953,4.953,0,0,1,273.422,1147.37Zm0-6.89a1.947,1.947,0,1,0,1.947,1.946A1.948,1.948,0,0,0,273.422,1140.48Z" fill="#656d79"/><rect width="2" height="2.972" transform="translate(261.804 1134.71)" fill="#656d79"/><rect width="2" height="5.992" transform="translate(261.804 1140.62)" fill="#656d79"/><rect width="2" height="5.992" transform="translate(261.804 1149.62)" fill="#656d79"/><rect width="2" height="3.862" transform="translate(261.804 1158.27)" fill="#656d79"/><path d="M291.51,1166.63H249.5a2.152,2.152,0,0,1-2.15-2.15v-8.107a2.155,2.155,0,0,1,1.869-2.128,6.154,6.154,0,0,0,.017-12.228,2.159,2.159,0,0,1-1.886-2.13v-8.108a2.152,2.152,0,0,1,2.15-2.15H291.51a5.849,5.849,0,0,1,5.843,5.843v25.317A5.848,5.848,0,0,1,291.51,1166.63Zm-40.157-4H291.51a1.845,1.845,0,0,0,1.843-1.843V1135.47a1.845,1.845,0,0,0-1.843-1.843H251.353v4.751a10.149,10.149,0,0,1,0,19.5v4.753Z" fill="#656d79"/></g></g></svg>