<svg xmlns="http://www.w3.org/2000/svg" width="45.882" height="46.167" viewBox="0 0 45.882 46.167"><g transform="translate(-898.61 -7580.043)"><g transform="translate(480.541 6455)"><rect width="33.289" height="4" transform="translate(424.515 1167.21)" fill="#656d79"/><path d="M457.6,1171.21v-4a2.359,2.359,0,0,0,2.357-2.356v-3.659H432.7v2.7a7.314,7.314,0,0,1-14.629,0v-35.727a3.129,3.129,0,0,1,3.125-3.126h32.483a3.128,3.128,0,0,1,3.125,3.126l-.079,29.025h5.062a2.168,2.168,0,0,1,2.166,2.166v5.493A6.36,6.36,0,0,1,457.6,1171.21Zm-35.527-42.16V1163.9a3.314,3.314,0,0,0,6.629,0v-4.535a2.169,2.169,0,0,1,2.167-2.166h21.86l.076-28.151H422.069Z" fill="#656d79"/><path d="M445.421,1139.27H428.8a1.5,1.5,0,0,1-1.5-1.5h0a1.5,1.5,0,0,1,1.5-1.5h16.62a1.5,1.5,0,0,1,1.5,1.5h0A1.5,1.5,0,0,1,445.421,1139.27Z" fill="#656d79"/><path d="M445.421,1145.6H428.8a1.5,1.5,0,0,1-1.5-1.5h0a1.5,1.5,0,0,1,1.5-1.5h16.62a1.5,1.5,0,0,1,1.5,1.5h0A1.5,1.5,0,0,1,445.421,1145.6Z" fill="#656d79"/><path d="M438.421,1151.92H428.8a1.5,1.5,0,0,1-1.5-1.5h0a1.5,1.5,0,0,1,1.5-1.5h9.62a1.5,1.5,0,0,1,1.5,1.5h0A1.5,1.5,0,0,1,438.421,1151.92Z" fill="#656d79"/></g></g></svg>