<svg xmlns="http://www.w3.org/2000/svg" width="41.463" height="40" viewBox="0 0 41.463 40"><g transform="translate(-3044.791 -5553.129)"><path d="M3080.23,5591.129h-26.439a7,7,0,0,1-7-7v-27a2,2,0,0,1,2-2h24.368a2,2,0,0,1,2,2v23" fill="none" stroke="currentColor" stroke-linecap="round" stroke-linejoin="round" stroke-width="4"/><path d="M3075.159,5571.475" fill="none" stroke="currentColor" stroke-linecap="round" stroke-linejoin="round" stroke-width="4"/><path d="M3075.159,5571.475v15.106a4.548,4.548,0,0,0,4.547,4.548h0a4.548,4.548,0,0,0,4.548-4.548v-13.106a2,2,0,0,0-2-2H3080.9" fill="none" stroke="currentColor" stroke-linecap="round" stroke-linejoin="round" stroke-width="4"/><line x2="5.088" transform="translate(3053.342 5565.384)" fill="none" stroke="currentColor" stroke-linecap="round" stroke-linejoin="round" stroke-width="4"/><line x2="14.459" transform="translate(3053.342 5572.333)" fill="none" stroke="currentColor" stroke-linecap="round" stroke-linejoin="round" stroke-width="4"/><line x2="14.714" transform="translate(3053.342 5579.281)" fill="none" stroke="currentColor" stroke-linecap="round" stroke-linejoin="round" stroke-width="4"/></g></svg>