<svg xmlns="http://www.w3.org/2000/svg" width="40.403" height="40.062" viewBox="0 0 40.403 40.062"><g transform="translate(-3045.321 -4006.846)"><path d="M3057.521,4018.706h13a3,3,0,0,1,3,3v13.343" fill="none" stroke="currentColor" stroke-linecap="round" stroke-linejoin="round" stroke-width="4"/><path d="M3057.521,4018.706h-7.2a3,3,0,0,0-3,3v20.2a3,3,0,0,0,3,3h20.2a3,3,0,0,0,3-3v-6.859" fill="none" stroke="currentColor" stroke-linecap="round" stroke-linejoin="round" stroke-width="4"/><path d="M3057.521,4018.706v-6.86a3,3,0,0,1,3-3h20.2a3,3,0,0,1,3,3v20.2a3,3,0,0,1-3,3h-7.2" fill="none" stroke="currentColor" stroke-linecap="round" stroke-linejoin="round" stroke-width="4"/></g></svg>