<svg xmlns="http://www.w3.org/2000/svg" width="32.454" height="40" viewBox="0 0 32.454 40"><path d="M2307.465,7598.5a10.587,10.587,0,0,0-3.863-2.426c0,.082-.007-.083,0,0,.35,4.208-2.076,6.05-3.876,9.353a13.313,13.313,0,0,0-1.522,6.392,14.227,14.227,0,1,0,28.454,0c0-11.8-6.882-19.013-16.3-21.773a24.038,24.038,0,0,1,.471,6.057c0,5.106-.471,6.426-.471,6.426a13.878,13.878,0,0,0-2.891-4.029m-4.157,2.431" transform="translate(-2296.204 -7588.047)" fill="none" stroke="currentColor" stroke-linecap="round" stroke-linejoin="round" stroke-width="4"/></svg>