<svg xmlns="http://www.w3.org/2000/svg" width="23.346" height="36.963" viewBox="0 0 23.346 36.963"><g transform="translate(-1090.767 -8445.197)"><path d="M611.712,2107.16a1.945,1.945,0,0,1-1.945-1.945v-33.072a1.945,1.945,0,1,1,3.89,0v33.072A1.944,1.944,0,0,1,611.712,2107.16Z" transform="translate(481 6375)" fill="#656d79"/><path d="M617.548,2093.54a1.946,1.946,0,0,1,0-3.891h11.525c.079-.021.136-.128.126-.269a.26.26,0,0,0-.134-.235,1.974,1.974,0,0,1-.512-.465L625.73,2085a1.945,1.945,0,0,1,0-2.37l2.847-3.7a1.978,1.978,0,0,1,.51-.464.252.252,0,0,0,.13-.229.347.347,0,0,0-.074-.253l-11.6,0a1.946,1.946,0,0,1,0-3.891h11.525a3.991,3.991,0,0,1,3.886,2.988,4.193,4.193,0,0,1-1.476,4.461l-1.755,2.281,1.734,2.263a4.206,4.206,0,0,1,1.47,4.5,3.935,3.935,0,0,1-3.778,2.962H617.548Z" transform="translate(481 6375)" fill="#656d79"/></g></svg>