<svg xmlns="http://www.w3.org/2000/svg" width="37.439" height="37.438" viewBox="0 0 37.439 37.438"><g transform="translate(-1076.674 -7735.112)"><path d="M614.393,1384.45a5.616,5.616,0,1,1,5.616-5.616A5.622,5.622,0,0,1,614.393,1384.45Zm0-7.49a1.872,1.872,0,1,0,1.872,1.872A1.874,1.874,0,0,0,614.393,1376.96Z" transform="translate(481 6375)" fill="#656d79"/><path d="M614.393,1397.55a3.748,3.748,0,0,1-3.744-3.744l.026-.31a1.846,1.846,0,0,0-.921-1.74,4.086,4.086,0,0,0-1.21-.505,1.857,1.857,0,0,0-1.894.579l-.2.235a3.84,3.84,0,0,1-5.3,0,3.75,3.75,0,0,1,0-5.294l.238-.2a1.853,1.853,0,0,0,.58-1.894,4.061,4.061,0,0,0-.505-1.209,1.857,1.857,0,0,0-1.777-.915l-.272.02a3.744,3.744,0,1,1,0-7.488l.309.026a1.843,1.843,0,0,0,1.74-.922,4.063,4.063,0,0,0,.506-1.208,1.856,1.856,0,0,0-.612-1.916l-.207-.178a3.749,3.749,0,0,1,0-5.293,3.836,3.836,0,0,1,5.3,0l.2.235a1.849,1.849,0,0,0,1.894.579,4.07,4.07,0,0,0,1.214-.507,1.844,1.844,0,0,0,.912-1.776l-.02-.271a3.744,3.744,0,0,1,7.488,0l-.026.31a1.844,1.844,0,0,0,.921,1.74,4.086,4.086,0,0,0,1.21.505,1.856,1.856,0,0,0,1.894-.579l.2-.235a3.84,3.84,0,0,1,5.3,0,3.75,3.75,0,0,1,0,5.294l-.238.2a1.853,1.853,0,0,0-.58,1.894,4.061,4.061,0,0,0,.505,1.209,1.857,1.857,0,0,0,1.777.915l.272-.02a3.744,3.744,0,1,1,0,7.488l-.309-.026a1.847,1.847,0,0,0-1.74.922,4.063,4.063,0,0,0-.506,1.208,1.856,1.856,0,0,0,.612,1.916l.207.178a3.749,3.749,0,0,1,0,5.293,3.84,3.84,0,0,1-5.3,0l-.2-.235a1.839,1.839,0,0,0-1.894-.579,4.07,4.07,0,0,0-1.214.507,1.844,1.844,0,0,0-.912,1.776l.02.271A3.749,3.749,0,0,1,614.393,1397.55Zm-6.36-10.1a5.943,5.943,0,0,1,1.358.159,7.763,7.763,0,0,1,2.34.974,5.579,5.579,0,0,1,2.662,4.2,5.573,5.573,0,0,1,2.658-4.2,7.779,7.779,0,0,1,2.344-.976,5.586,5.586,0,0,1,4.865,1.092,5.593,5.593,0,0,1-1.093-4.865,7.75,7.75,0,0,1,.976-2.341,2.943,2.943,0,1,0,0-5.32,7.734,7.734,0,0,1-.974-2.342,5.589,5.589,0,0,1,1.091-4.866,5.592,5.592,0,0,1-4.865,1.092,7.786,7.786,0,0,1-2.34-.973,5.579,5.579,0,0,1-2.662-4.2,5.573,5.573,0,0,1-2.658,4.2,7.779,7.779,0,0,1-2.344.976,5.583,5.583,0,0,1-4.865-1.092,5.593,5.593,0,0,1,1.093,4.865,7.75,7.75,0,0,1-.976,2.341,2.943,2.943,0,1,0,0,5.32,7.734,7.734,0,0,1,.974,2.342,5.589,5.589,0,0,1-1.091,4.866A5.577,5.577,0,0,1,608.033,1387.45Z" transform="translate(481 6375)" fill="#656d79"/></g></svg>