<svg xmlns="http://www.w3.org/2000/svg" width="34.431" height="36.456" viewBox="0 0 34.431 36.456"><g transform="translate(-737.372 -8266.434)"><path d="M282.7,1927.89h-8.1a2.025,2.025,0,0,1,0-4.05h8.1a4.055,4.055,0,0,0,4.051-4.051v-20.254a4.055,4.055,0,0,0-4.051-4.051h-8.1a2.025,2.025,0,0,1,0-4.05h8.1a8.111,8.111,0,0,1,8.1,8.1v20.254A8.114,8.114,0,0,1,282.7,1927.89Z" transform="translate(481 6375)" fill="#656d79"/><path d="M274.6,1917.76a2.025,2.025,0,0,1-1.432-3.457l4.644-4.644-4.644-4.644a2.025,2.025,0,0,1,2.864-2.864l6.076,6.076a2.025,2.025,0,0,1,0,2.864l-6.076,6.076A2.028,2.028,0,0,1,274.6,1917.76Z" transform="translate(481 6375)" fill="#656d79"/><path d="M276.625,1911.66H258.4a2.026,2.026,0,0,1,0-4.051h18.228a2.026,2.026,0,0,1,0,4.051Z" transform="translate(481 6375)" fill="#656d79"/></g></svg>