<svg xmlns="http://www.w3.org/2000/svg" width="33" height="28.758" viewBox="0 0 33 28.758"><g transform="translate(-735.833 -7739.452)"><path d="M271.333,1393.21a2.061,2.061,0,0,1-1.238-.413c-.358-.268-8.8-6.617-11.994-10.756-2.689-3.477-3.816-7.521-3.015-10.819a8.556,8.556,0,0,1,4.955-5.812,10.246,10.246,0,0,1,11.292,1.782,10.249,10.249,0,0,1,11.292-1.782,8.552,8.552,0,0,1,4.955,5.812c.8,3.3-.326,7.343-3.015,10.821-3.2,4.138-11.637,10.487-11.994,10.755A2.083,2.083,0,0,1,271.333,1393.21Zm-6.985-24.64a6.02,6.02,0,0,0-2.562.581,4.514,4.514,0,0,0-2.691,3.046c-.5,2.059.37,4.865,2.27,7.322,2.188,2.832,7.537,7.133,9.968,9.027,2.431-1.894,7.782-6.2,9.968-9.026,1.9-2.458,2.769-5.264,2.27-7.323a4.51,4.51,0,0,0-2.691-3.046h0a6.136,6.136,0,0,0-7.793,2.347,2.146,2.146,0,0,1-3.508,0A6.289,6.289,0,0,0,264.348,1368.57Z" transform="translate(481 6375)" fill="#656d79"/></g></svg>