<svg xmlns="http://www.w3.org/2000/svg" width="41.657" height="41.657" viewBox="0 0 41.657 41.657"><g transform="translate(-3421.24 -5739.688)"><path d="M3441.178,5762.36" fill="none" stroke="currentColor" stroke-linecap="round" stroke-linejoin="round" stroke-width="4"/><path d="M3460.068,5760.517c-3.6,7.05-10.3,11.8-18,11.8a18.687,18.687,0,0,1-9.306-2.5" fill="none" stroke="currentColor" stroke-linecap="round" stroke-linejoin="round" stroke-width="4"/><path d="M3428.415,5766.5a23.409,23.409,0,0,1-4.347-5.985" fill="none" stroke="currentColor" stroke-linecap="round" stroke-linejoin="round" stroke-width="4"/><path d="M3451.374,5751.211a22.315,22.315,0,0,1,8.694,9.306" fill="none" stroke="currentColor" stroke-linecap="round" stroke-linejoin="round" stroke-width="4"/><path d="M3424.068,5760.517c3.6-7.05,10.3-11.805,18-11.805a18.325,18.325,0,0,1,4.169.484" fill="none" stroke="currentColor" stroke-linecap="round" stroke-linejoin="round" stroke-width="4"/><path d="M3438.518,5764.067a5.02,5.02,0,1,0,7.1-7.1" fill="none" stroke="currentColor" stroke-linecap="round" stroke-linejoin="round" stroke-width="4"/><line y1="8.694" x2="8.694" transform="translate(3451.374 5742.517)" fill="none" stroke="currentColor" stroke-linecap="round" stroke-linejoin="round" stroke-width="4"/><line y1="7.1" x2="7.1" transform="translate(3438.518 5756.967)" fill="none" stroke="currentColor" stroke-linecap="round" stroke-linejoin="round" stroke-width="4"/><line x1="8.694" y2="8.694" transform="translate(3424.068 5769.823)" fill="none" stroke="currentColor" stroke-linecap="round" stroke-linejoin="round" stroke-width="4"/><line x1="5.756" y2="5.756" transform="translate(3432.762 5764.067)" fill="none" stroke="currentColor" stroke-linecap="round" stroke-linejoin="round" stroke-width="4"/><line x1="5.756" y2="5.756" transform="translate(3445.618 5751.211)" fill="none" stroke="currentColor" stroke-linecap="round" stroke-linejoin="round" stroke-width="4"/></g></svg>