<svg xmlns="http://www.w3.org/2000/svg" width="41.17" height="34.999" viewBox="0 0 41.17 34.999"><g transform="translate(-563.802 -8266.431)"><path d="M99.272,1926.43v-9.255a3.1,3.1,0,0,1,3.1-3.1h2.049a3.093,3.093,0,0,1,3.089,3.089v9.262Z" transform="translate(481 6375)" fill="#656d79"/><path d="M115.83,1926.43H90.947a4.032,4.032,0,0,1-4.027-4.027v-16.692l-2.2-.149a2.058,2.058,0,0,1-.862-3.852l17.59-9.773a3.963,3.963,0,0,1,3.871,0l17.592,9.775a2.058,2.058,0,0,1-.862,3.852l-2.2.149V1922.4A4.031,4.031,0,0,1,115.83,1926.43Zm-25.157-23.82a2.054,2.054,0,0,1,.365,1.17V1922.4l24.792-.09-.09-18.526a2.054,2.054,0,0,1,.355-1.156l-12.769-7.095Z" transform="translate(481 6375)" fill="#656d79"/></g></svg>