<svg xmlns="http://www.w3.org/2000/svg" width="40" height="40" viewBox="0 0 40 40"><g transform="translate(-3234.113 -7400.892)"><path d="M3249.862,7438.366a17.444,17.444,0,0,0,8.5,0" fill="none" stroke="currentColor" stroke-linecap="round" stroke-linejoin="round" stroke-width="4"/><path d="M3258.364,7403.418a17.444,17.444,0,0,0-8.5,0" fill="none" stroke="currentColor" stroke-linecap="round" stroke-linejoin="round" stroke-width="4"/><path d="M3271.587,7416.64a17.441,17.441,0,0,1,0,8.5" fill="none" stroke="currentColor" stroke-linecap="round" stroke-linejoin="round" stroke-width="4"/><path d="M3258.364,7403.418a18,18,0,0,1,13.223,13.222" fill="none" stroke="currentColor" stroke-linecap="round" stroke-linejoin="round" stroke-width="4"/><path d="M3236.639,7416.64a18,18,0,0,1,13.223-13.222" fill="none" stroke="currentColor" stroke-linecap="round" stroke-linejoin="round" stroke-width="4"/><path d="M3271.587,7425.143a18,18,0,0,1-13.223,13.223" fill="none" stroke="currentColor" stroke-linecap="round" stroke-linejoin="round" stroke-width="4"/><path d="M3249.862,7438.366a18,18,0,0,1-13.223-13.223" fill="none" stroke="currentColor" stroke-linecap="round" stroke-linejoin="round" stroke-width="4"/><path d="M3236.639,7416.64a17.448,17.448,0,0,0,0,8.5" fill="none" stroke="currentColor" stroke-linecap="round" stroke-linejoin="round" stroke-width="4"/><path d="M3258.364,7413.764a8.246,8.246,0,0,0-8.5,0" fill="none" stroke="currentColor" stroke-linecap="round" stroke-linejoin="round" stroke-width="4"/><path d="M3261.241,7416.64a8.329,8.329,0,0,0-2.877-2.876" fill="none" stroke="currentColor" stroke-linecap="round" stroke-linejoin="round" stroke-width="4"/><path d="M3258.364,7428.019a8.329,8.329,0,0,0,2.877-2.876" fill="none" stroke="currentColor" stroke-linecap="round" stroke-linejoin="round" stroke-width="4"/><path d="M3246.985,7416.64a8.254,8.254,0,0,0,0,8.5" fill="none" stroke="currentColor" stroke-linecap="round" stroke-linejoin="round" stroke-width="4"/><path d="M3249.862,7428.019a8.246,8.246,0,0,0,8.5,0" fill="none" stroke="currentColor" stroke-linecap="round" stroke-linejoin="round" stroke-width="4"/><path d="M3261.241,7416.64a8.249,8.249,0,0,1,0,8.5" fill="none" stroke="currentColor" stroke-linecap="round" stroke-linejoin="round" stroke-width="4"/><path d="M3246.985,7425.143a8.342,8.342,0,0,0,2.877,2.876" fill="none" stroke="currentColor" stroke-linecap="round" stroke-linejoin="round" stroke-width="4"/><path d="M3246.985,7416.64a8.342,8.342,0,0,1,2.877-2.876" fill="none" stroke="currentColor" stroke-linecap="round" stroke-linejoin="round" stroke-width="4"/><line y1="10.346" transform="translate(3258.364 7428.02)" fill="none" stroke="currentColor" stroke-linecap="round" stroke-linejoin="round" stroke-width="4"/><line y2="10.346" transform="translate(3258.364 7403.417)" fill="none" stroke="currentColor" stroke-linecap="round" stroke-linejoin="round" stroke-width="4"/><line y2="10.346" transform="translate(3249.862 7428.02)" fill="none" stroke="currentColor" stroke-linecap="round" stroke-linejoin="round" stroke-width="4"/><line y2="10.346" transform="translate(3249.862 7403.417)" fill="none" stroke="currentColor" stroke-linecap="round" stroke-linejoin="round" stroke-width="4"/><line x1="10.346" transform="translate(3261.241 7416.641)" fill="none" stroke="currentColor" stroke-linecap="round" stroke-linejoin="round" stroke-width="4"/><line x1="10.346" transform="translate(3236.639 7416.641)" fill="none" stroke="currentColor" stroke-linecap="round" stroke-linejoin="round" stroke-width="4"/><line x1="10.346" transform="translate(3236.639 7425.143)" fill="none" stroke="currentColor" stroke-linecap="round" stroke-linejoin="round" stroke-width="4"/><line x1="10.346" transform="translate(3261.241 7425.143)" fill="none" stroke="currentColor" stroke-linecap="round" stroke-linejoin="round" stroke-width="4"/></g></svg>