<svg xmlns="http://www.w3.org/2000/svg" width="40.009" height="38.257" viewBox="0 0 40.009 38.257"><g transform="translate(-3233.946 -7027.452)"><line y2="18.34" transform="translate(3246.181 7045.37)" fill="none" stroke="currentColor" stroke-linecap="round" stroke-linejoin="round" stroke-width="4"/><path d="M3251.757,7063.692h13.735a4.381,4.381,0,0,0,4.329-3.71l2.073-13.38a4.252,4.252,0,0,0-4.2-4.9h-9.934v-7.937a4.309,4.309,0,0,0-4.309-4.309h-.064a2.327,2.327,0,0,0-2.3,1.957h0a41.084,41.084,0,0,1-3.608,11.316l-1.281,2.627h-7.522a2.732,2.732,0,0,0-2.731,2.732v12.876a2.731,2.731,0,0,0,2.731,2.732h7.5" fill="none" stroke="currentColor" stroke-linecap="round" stroke-linejoin="round" stroke-width="4"/></g></svg>