<svg xmlns="http://www.w3.org/2000/svg" width="32.19" height="32.194" viewBox="0 0 32.19 32.194"><g transform="translate(-564.507 -7915.146)"><path d="M95.579,1564.29a12.072,12.072,0,1,1,12.072-12.072A12.085,12.085,0,0,1,95.579,1564.29Zm0-20.12a8.048,8.048,0,1,0,8.048,8.048A8.056,8.056,0,0,0,95.579,1544.17Z" transform="translate(481 6375)" fill="#656d79"/><path d="M113.686,1572.34a2.007,2.007,0,0,1-1.423-.59l-10.06-10.06a2.012,2.012,0,0,1,2.845-2.845l10.06,10.06a2.011,2.011,0,0,1,0,2.845A1.974,1.974,0,0,1,113.686,1572.34Z" transform="translate(481 6375)" fill="#656d79"/></g></svg>