<svg xmlns="http://www.w3.org/2000/svg" width="40.049" height="38.519" viewBox="0 0 40.049 38.519"><g transform="translate(-3422.056 -7027.074)"><path d="M3438.808,7043.3l-13.051,7.925a3.511,3.511,0,0,0-1.178,4.824l2.342,3.858a3.513,3.513,0,0,0,4.825,1.179l13.175-8,14.167,1.636a.878.878,0,0,0,.851-1.328l-14.508-23.89a.878.878,0,0,0-1.574.152l-3.182,8.6" fill="none" stroke="currentColor" stroke-linecap="round" stroke-linejoin="round" stroke-width="4"/><path d="M3438.31,7061.949l.49.806a2.76,2.76,0,0,0,3.793.927h0a2.76,2.76,0,0,0,.927-3.793l-2.642-4.351-4.721,2.866" fill="none" stroke="currentColor" stroke-linecap="round" stroke-linejoin="round" stroke-width="3"/><line x2="6.067" y2="9.784" transform="translate(3438.855 7043.298)" fill="none" stroke="currentColor" stroke-linecap="round" stroke-linejoin="round" stroke-width="4"/></g></svg>