<svg xmlns="http://www.w3.org/2000/svg" width="50" height="36.398" viewBox="0 0 50 36.398"><g transform="translate(-561.357 -7404.691)"><g transform="translate(480.541 6455)"><path d="M123.346,986.089H88.284a7.477,7.477,0,0,1-7.469-7.469V957.161a7.478,7.478,0,0,1,7.469-7.47h35.062a7.478,7.478,0,0,1,7.469,7.47V978.62A7.477,7.477,0,0,1,123.346,986.089Zm-35.062-32.4a3.474,3.474,0,0,0-3.469,3.47v21.459a3.473,3.473,0,0,0,3.469,3.469h35.062a3.473,3.473,0,0,0,3.469-3.469V957.162a3.474,3.474,0,0,0-3.469-3.47Z" fill="#656d79"/><path d="M106.295,975.308H102.51a1.5,1.5,0,0,1-1.5-1.5h0a1.5,1.5,0,0,1,1.5-1.5H106.5a1.482,1.482,0,0,0,.006-2.964l-1.2-.006a4.617,4.617,0,0,1-4.638-4.043,4.487,4.487,0,0,1,4.461-4.922h3.99a1.5,1.5,0,0,1,1.5,1.5h0a1.5,1.5,0,0,1-1.5,1.5h-3.99a1.482,1.482,0,0,0-.008,2.963l1.4.007a4.491,4.491,0,0,1,4.437,4.947A4.622,4.622,0,0,1,106.295,975.308Z" fill="#656d79"/><rect width="3" height="3.748" transform="translate(104.419 958.141)" fill="#656d79"/><rect width="3" height="3.677" transform="translate(104.341 973.964)" fill="#656d79"/><path d="M122.84,955.572l-2.021,1.325a1.5,1.5,0,0,0-.432,2.077h0a1.5,1.5,0,0,0,2.077.432l2.021-1.325a1.5,1.5,0,0,0,.432-2.077h0A1.5,1.5,0,0,0,122.84,955.572Z" fill="#656d79"/><path d="M89.426,975.934l-1.978,1.39a1.5,1.5,0,0,0-.365,2.09h0a1.5,1.5,0,0,0,2.09.365l1.978-1.39a1.5,1.5,0,0,0,.365-2.09h0A1.5,1.5,0,0,0,89.426,975.934Z" fill="#656d79"/></g></g></svg>