<svg xmlns="http://www.w3.org/2000/svg" width="40" height="29.849" viewBox="0 0 40 29.849"><g transform="translate(-2857.96 -6844.501)"><rect width="36" height="25.848" rx="2" transform="translate(2859.96 6846.501)" fill="none" stroke="currentColor" stroke-linecap="round" stroke-linejoin="round" stroke-width="4"/><path d="M8.66,0h0a0,0,0,0,1,0,0V6.66a2,2,0,0,1-2,2H0a0,0,0,0,1,0,0v0A8.66,8.66,0,0,1,8.66,0Z" transform="translate(2887.3 6863.69)" fill="none" stroke="currentColor" stroke-linecap="round" stroke-linejoin="round" stroke-width="4"/><path d="M0,0H6.66a2,2,0,0,1,2,2V8.66a0,0,0,0,1,0,0h0A8.66,8.66,0,0,1,0,0V0A0,0,0,0,1,0,0Z" transform="translate(2887.3 6846.501)" fill="none" stroke="currentColor" stroke-linecap="round" stroke-linejoin="round" stroke-width="4"/><path d="M0,0H6.66a2,2,0,0,1,2,2V8.66a0,0,0,0,1,0,0h0A8.66,8.66,0,0,1,0,0V0A0,0,0,0,1,0,0Z" transform="translate(2868.619 6872.35) rotate(180)" fill="none" stroke="currentColor" stroke-linecap="round" stroke-linejoin="round" stroke-width="4"/><path d="M8.66,0h0a0,0,0,0,1,0,0V6.66a2,2,0,0,1-2,2H0a0,0,0,0,1,0,0v0A8.66,8.66,0,0,1,8.66,0Z" transform="translate(2868.619 6855.161) rotate(180)" fill="none" stroke="currentColor" stroke-linecap="round" stroke-linejoin="round" stroke-width="4"/><path d="M2877.411,6859.425h-.244a3.2,3.2,0,0,1-3.205-3.2h0a3.205,3.205,0,0,1,3.205-3.205h3.432" fill="none" stroke="currentColor" stroke-linecap="round" stroke-linejoin="round" stroke-width="4"/><path d="M2877.411,6859.425h1.04a3.206,3.206,0,0,1,3.205,3.206h0a3.205,3.205,0,0,1-3.205,3.205h-3.432" fill="none" stroke="currentColor" stroke-linecap="round" stroke-linejoin="round" stroke-width="4"/></g></svg>