<svg xmlns="http://www.w3.org/2000/svg" width="40.828" height="26.888" viewBox="0 0 40.828 26.888"><g transform="translate(-2857.25 -5559.684)"><path d="M2866.376,5568.008h-4.121a3.006,3.006,0,0,0-3,3.006v4.229a3.005,3.005,0,0,0,3,3.006h4.121a3,3,0,0,1,2.063.82l5.5,5.19a1,1,0,0,0,1.689-.728v-20.8a1,1,0,0,0-1.689-.728l-5.5,5.19A3,3,0,0,1,2866.376,5568.008Z" fill="none" stroke="currentColor" stroke-linecap="round" stroke-linejoin="round" stroke-width="4"/><line x1="12.958" y2="12.958" transform="translate(2882.292 5566.65)" fill="none" stroke="currentColor" stroke-linecap="round" stroke-linejoin="round" stroke-width="4"/><line x2="12.958" y2="12.958" transform="translate(2882.292 5566.65)" fill="none" stroke="currentColor" stroke-linecap="round" stroke-linejoin="round" stroke-width="4"/></g></svg>