<svg xmlns="http://www.w3.org/2000/svg" width="40" height="40" viewBox="0 0 40 40"><g transform="translate(-3422.068 -4006.877)"><path d="M3454.13,4027.039v13.838a4,4,0,0,1-4,4h-22.062a4,4,0,0,1-4-4v-22.061a4,4,0,0,1,4-4h13.9" fill="none" stroke="currentColor" stroke-linecap="round" stroke-linejoin="round" stroke-width="4"/><path d="M3448.192,4014.731v.169a5.9,5.9,0,0,0,5.938,5.854h0a5.9,5.9,0,0,0,5.938-5.854v-.169a5.9,5.9,0,0,0-5.938-5.854h0A5.9,5.9,0,0,0,3448.192,4014.731Z" fill="none" stroke="currentColor" stroke-linecap="round" stroke-linejoin="round" stroke-width="4"/></g></svg>