<svg xmlns="http://www.w3.org/2000/svg" width="40" height="40" viewBox="0 0 40 40"><g transform="translate(-2480.801 -7213.736)"><path d="M2482.8,7233.736c0,2.313,2.283,4.154,3.117,6.165.864,2.084.585,4.993,2.156,6.563s4.479,1.292,6.563,2.156c2.01.834,3.852,3.116,6.164,3.116s4.154-2.282,6.165-3.116c2.084-.864,4.993-.585,6.563-2.156s1.292-4.479,2.156-6.563c.834-2.011,3.116-3.852,3.116-6.165s-2.282-4.154-3.116-6.164c-.864-2.085-.585-4.993-2.156-6.564s-4.479-1.291-6.563-2.155c-2.011-.834-3.852-3.117-6.165-3.117s-4.154,2.283-6.164,3.117c-2.084.864-4.993.585-6.564,2.156s-1.291,4.479-2.155,6.563C2485.084,7229.582,2482.8,7231.424,2482.8,7233.736Z" fill="none" stroke="currentColor" stroke-linecap="round" stroke-linejoin="round" stroke-width="4"/><line x1="7.449" y2="7.449" transform="translate(2497.077 7230.012)" fill="none" stroke="currentColor" stroke-linecap="round" stroke-linejoin="round" stroke-width="3"/><circle cx="0.122" cy="0.122" r="0.122" transform="translate(2496.955 7229.89)" fill="none" stroke="currentColor" stroke-linecap="round" stroke-linejoin="round" stroke-width="4"/><circle cx="0.122" cy="0.122" r="0.122" transform="translate(2504.404 7237.339)" fill="none" stroke="currentColor" stroke-linecap="round" stroke-linejoin="round" stroke-width="4"/></g></svg>