<svg xmlns="http://www.w3.org/2000/svg" width="40" height="31.832" viewBox="0 0 40 31.832"><g transform="translate(-2668.977 -7592.131)"><path d="M2670.977,7597.131a3,3,0,0,1,3-3h22.235a3,3,0,0,1,3,3v14.963" fill="none" stroke="currentColor" stroke-linecap="round" stroke-linejoin="round" stroke-width="4"/><path d="M2703.1,7621.963h-28.12a4,4,0,0,1-4-4v-15.7" fill="none" stroke="currentColor" stroke-linecap="round" stroke-linejoin="round" stroke-width="4"/><path d="M2705.03,7598.114h1.947v19.969a3.88,3.88,0,0,1-3.88,3.88h0a3.884,3.884,0,0,1-3.885-3.88v-19.969" fill="none" stroke="currentColor" stroke-linecap="round" stroke-linejoin="round" stroke-width="4"/><line x2="12.958" transform="translate(2678.489 7614.623)" fill="none" stroke="currentColor" stroke-linecap="round" stroke-linejoin="round" stroke-width="4"/><line x2="12.958" transform="translate(2678.615 7608.047)" fill="none" stroke="currentColor" stroke-linecap="round" stroke-linejoin="round" stroke-width="4"/><line x2="12.958" transform="translate(2678.563 7601.472)" fill="none" stroke="currentColor" stroke-linecap="round" stroke-linejoin="round" stroke-width="4"/></g></svg>