<svg xmlns="http://www.w3.org/2000/svg" width="39.823" height="39.965" viewBox="0 0 39.823 39.965"><g transform="translate(-3045.585 -7026.991)"><path d="M3073.917,7035.365l8.9,8.832a2,2,0,0,1,.011,2.829l-2.566,2.586a2,2,0,0,1-2.8.036l-2.7-2.585-2.526,2.571a8,8,0,0,0-2.287,5.949l.108,2.527a4,4,0,0,1-1.173,3l-3.067,3.056-8.789-8.721-8.613,8.679" fill="none" stroke="currentColor" stroke-linecap="round" stroke-linejoin="round" stroke-width="4"/><path d="M3076.978,7038.4l-8.9-8.831a2,2,0,0,0-2.829.011l-2.566,2.586a2,2,0,0,0-.014,2.8l2.6,2.677-2.494,2.538a8,8,0,0,1-5.985,2.388l-2.509-.088a4,4,0,0,0-2.963,1.164l-3.086,3.075,4.448,4.413" fill="none" stroke="currentColor" stroke-linecap="round" stroke-linejoin="round" stroke-width="4"/></g></svg>