<svg xmlns="http://www.w3.org/2000/svg" width="43.34" height="40.001" viewBox="0 0 43.34 40.001"><g transform="translate(-3044.326 -6839.425)"><rect width="39.34" height="9.549" rx="1.249" transform="translate(3046.326 6848.716)" fill="none" stroke="currentColor" stroke-linecap="round" stroke-linejoin="round" stroke-width="4"/><path d="M3082.165,6863.46v9.594a4.371,4.371,0,0,1-4.371,4.371h-23.6a4.371,4.371,0,0,1-4.371-4.371v-14.79" fill="none" stroke="currentColor" stroke-linecap="round" stroke-linejoin="round" stroke-width="4"/><path d="M3066,6846.87a5.445,5.445,0,0,1,5.444-5.445h0a5.445,5.445,0,0,1,5.444,5.445" fill="none" stroke="currentColor" stroke-linecap="round" stroke-linejoin="round" stroke-width="4"/><path d="M3066,6877.425" fill="none" stroke="currentColor" stroke-linecap="round" stroke-linejoin="round" stroke-width="4"/><line y2="18.492" transform="translate(3065.996 6858.933)" fill="none" stroke="currentColor" stroke-linecap="round" stroke-linejoin="round" stroke-width="4"/><path d="M3055.107,6846.87a5.445,5.445,0,0,1,5.444-5.445h0a5.445,5.445,0,0,1,5.444,5.445" fill="none" stroke="currentColor" stroke-linecap="round" stroke-linejoin="round" stroke-width="4"/></g></svg>