<svg xmlns="http://www.w3.org/2000/svg" width="40.841" height="32.616" viewBox="0 0 40.841 32.616"><g transform="translate(-3421.648 -2883.833)"><path d="M3452.8,2890.693a14.256,14.256,0,0,1,3.562,9.448h0a14.308,14.308,0,0,1-14.308,14.308h0a14.262,14.262,0,0,1-5.977-1.3" fill="none" stroke="currentColor" stroke-linecap="round" stroke-linejoin="round" stroke-width="4"/><path d="M3430.869,2909.069a14.251,14.251,0,0,1-3.126-8.928h0a14.308,14.308,0,0,1,14.308-14.308h0a14.235,14.235,0,0,1,6.356,1.486" fill="none" stroke="currentColor" stroke-linecap="round" stroke-linejoin="round" stroke-width="4"/><path d="M3433.242,2902.415l-1.813,7.361-7.361-1.813" fill="none" stroke="currentColor" stroke-linecap="round" stroke-linejoin="round" stroke-width="4"/><path d="M3450.895,2897.867l1.813-7.36,7.36,1.813" fill="none" stroke="currentColor" stroke-linecap="round" stroke-linejoin="round" stroke-width="4"/></g></svg>