<svg xmlns="http://www.w3.org/2000/svg" width="40" height="40" viewBox="0 0 40 40"><g transform="translate(-2480.704 -4194.146)"><path d="M6.351,0h0A6.351,6.351,0,0,1,12.7,6.351V12.7a0,0,0,0,1,0,0H6.351A6.351,6.351,0,0,1,0,6.351v0A6.351,6.351,0,0,1,6.351,0Z" transform="translate(2482.704 4196.146)" fill="none" stroke="currentColor" stroke-linecap="round" stroke-linejoin="round" stroke-width="4"/><path d="M6.351,0H12.7a0,0,0,0,1,0,0V6.351A6.351,6.351,0,0,1,6.351,12.7h0A6.351,6.351,0,0,1,0,6.351v0A6.351,6.351,0,0,1,6.351,0Z" transform="translate(2482.704 4219.445)" fill="none" stroke="currentColor" stroke-linecap="round" stroke-linejoin="round" stroke-width="4"/><path d="M6.351,0h0A6.351,6.351,0,0,1,12.7,6.351v0A6.351,6.351,0,0,1,6.351,12.7H0a0,0,0,0,1,0,0V6.351A6.351,6.351,0,0,1,6.351,0Z" transform="translate(2506.002 4196.146)" fill="none" stroke="currentColor" stroke-linecap="round" stroke-linejoin="round" stroke-width="4"/><path d="M2495.405,4208.848H2506v10.6h-10.6Z" fill="none" stroke="currentColor" stroke-linecap="round" stroke-linejoin="round" stroke-width="4"/><path d="M0,0H6.351A6.351,6.351,0,0,1,12.7,6.351v0A6.351,6.351,0,0,1,6.351,12.7h0A6.351,6.351,0,0,1,0,6.351V0A0,0,0,0,1,0,0Z" transform="translate(2506.002 4219.445)" fill="none" stroke="currentColor" stroke-linecap="round" stroke-linejoin="round" stroke-width="4"/></g></svg>