<svg xmlns="http://www.w3.org/2000/svg" width="40" height="25.933" viewBox="0 0 40 25.933"><g transform="translate(-3422.068 -2512.719)"><path d="M3441.987,2524.749l16.429-9.842a1.091,1.091,0,0,1,1.652.936v19.684a1.091,1.091,0,0,1-1.652.936l-16.429-9.842A1.091,1.091,0,0,1,3441.987,2524.749Z" fill="none" stroke="currentColor" stroke-linecap="round" stroke-linejoin="round" stroke-width="4"/><path d="M3424.567,2524.8l15.461-9.261a1.027,1.027,0,0,1,1.555.881v18.523a1.027,1.027,0,0,1-1.555.881l-15.461-9.262A1.028,1.028,0,0,1,3424.567,2524.8Z" fill="none" stroke="currentColor" stroke-linecap="round" stroke-linejoin="round" stroke-width="4"/></g></svg>