<svg xmlns="http://www.w3.org/2000/svg" width="40" height="25.933" viewBox="0 0 40 25.933"><g transform="translate(-3233.795 -2512.719)"><path d="M3253.877,2524.749l-16.429-9.842a1.092,1.092,0,0,0-1.653.936v19.684a1.092,1.092,0,0,0,1.653.936l16.429-9.842A1.091,1.091,0,0,0,3253.877,2524.749Z" fill="none" stroke="currentColor" stroke-linecap="round" stroke-linejoin="round" stroke-width="4"/><path d="M3271.3,2524.8l-15.46-9.261a1.027,1.027,0,0,0-1.555.881v18.523a1.027,1.027,0,0,0,1.555.881l15.46-9.262A1.027,1.027,0,0,0,3271.3,2524.8Z" fill="none" stroke="currentColor" stroke-linecap="round" stroke-linejoin="round" stroke-width="4"/></g></svg>