<svg xmlns="http://www.w3.org/2000/svg" width="39.316" height="40" viewBox="0 0 39.316 40"><g transform="translate(-3422.41 -1007.862)"><path d="M3433.612,1018.465a8.6,8.6,0,0,1,8.6-8.6h0a8.6,8.6,0,0,1,8.6,8.6v1.839" fill="none" stroke="currentColor" stroke-linecap="round" stroke-linejoin="round" stroke-width="4"/><path d="M3450.817,1020.3h5.9a3,3,0,0,1,2.932,3.637l-4.173,19.217a3.433,3.433,0,0,1-3.354,2.7h-20.1a3.433,3.433,0,0,1-3.354-2.7l-4.173-19.217a3,3,0,0,1,2.932-3.637h17.094" fill="none" stroke="currentColor" stroke-linecap="round" stroke-linejoin="round" stroke-width="4"/><line x2="24.352" transform="translate(3432.771 1035.201)" fill="none" stroke="currentColor" stroke-linecap="round" stroke-linejoin="round" stroke-width="4"/></g></svg>