<svg id="Livello_2" xmlns="http://www.w3.org/2000/svg" viewBox="0 0 478.44 478.43">
<g id="Livello_1-2">
<path class="cls-1" fill="currentColor" stroke="currentColor" d="M478.44,19c-1.33,11.38-2.41,22.79-4.04,34.13-6.72,46.91-18.4,92.33-41.04,134.39-10.01,18.6-22.33,35.5-37.31,50.44-17.35,17.3-34.7,34.6-51.89,52.05-1.71,1.73-3.09,4.43-3.37,6.83-3.28,28.29-6.18,56.62-9.6,84.89-.46,3.81-2.46,8.14-5.14,10.85-26.78,27.19-53.87,54.08-80.81,81.11-3.39,3.4-7,5.76-11.97,4.28-5.03-1.5-6.65-5.49-7.33-10.27-2.72-19.29-5.49-38.57-8.41-57.83-.27-1.76-1.4-3.59-2.62-4.95-4.77-5.31-9.74-10.44-15.06-16.09-1.56,2.29-2.51,3.57-3.33,4.93-7.21,11.98-14.35,24.01-21.61,35.97-4.56,7.51-11.54,8.42-17.77,2.21-36.93-36.85-73.81-73.73-110.66-110.66-6.34-6.36-5.47-13.07,2.18-17.72,13.23-8.04,26.52-15.96,40.33-24.25-5.82-6.07-11.36-11.95-17.05-17.68-.68-.69-2.18-.62-3.32-.79-18.29-2.64-36.58-5.26-54.88-7.9-1.81-.26-3.63-.51-5.42-.9-8.07-1.77-10.94-10.19-5.67-16.61.84-1.03,1.83-1.93,2.78-2.88,26.51-26.52,53.08-52.99,79.5-79.6,3.77-3.79,7.95-5.5,13.19-6.05,27.99-2.92,55.97-6.05,83.92-9.31,2.24-.26,4.73-1.65,6.36-3.26,15.79-15.56,31.71-31,47.02-47.02,26.83-28.09,59.34-47.04,95.44-60.27,39.79-14.59,80.99-22.75,123.19-26.13,1.81-.14,3.59-.6,5.38-.92,6.33,0,12.67,0,19,0v19ZM250.23,355.32c1.66-1.58,2.99-2.81,4.27-4.09,41.12-41.12,81.99-82.49,123.46-123.26,26.65-26.2,44.26-57.61,56.42-92.46.47-1.33.12-3.73-.82-4.67-28.53-28.73-57.16-57.36-85.87-85.9-.9-.89-3.01-1.46-4.17-1.05-33.4,11.57-64.08,27.74-89.36,53.06-51.8,51.88-103.67,103.69-155.5,155.54-1.25,1.25-2.43,2.56-3.37,3.55,42.53,42.53,84.69,84.69,126.48,126.47,4.39-4.23,9.03-8.69,14.52-13.98-1.31-.95-2.97-1.86-4.26-3.14-23.6-23.53-47.16-47.09-70.7-70.68-1.52-1.52-3.06-3.11-4.21-4.91-2.58-4.06-1.82-9.15,1.57-12.31,3.26-3.03,8.13-3.54,11.98-1,1.78,1.18,3.38,2.7,4.9,4.22,24.76,24.72,49.49,49.46,74.65,74.62ZM103.2,294.11c-11.18,6.72-22.76,13.68-33.74,20.28,31.74,31.74,63.03,63.03,94.59,94.6,6.67-11.11,13.58-22.61,20.27-33.75-27.12-27.12-53.96-53.96-81.12-81.12ZM162.42,161.59c-.3-.52-.6-1.04-.9-1.56-20.14,2.28-40.3,4.5-60.42,6.93-1.58.19-3.24,1.54-4.46,2.76-20.76,20.66-41.47,41.37-62.17,62.09-.87.87-1.61,1.89-2.67,3.16,1.28.36,2.05.68,2.84.79,14.15,2.05,28.28,4.23,42.48,5.93,2.12.25,5.08-1.18,6.7-2.79,24.48-24.23,48.79-48.64,73.19-72.96,1.63-1.62,3.6-2.9,5.41-4.34ZM318.44,316.05c-1.36,1.12-2.14,1.66-2.81,2.32-25.66,25.64-51.35,51.26-76.87,77.04-1.43,1.45-2.14,4.39-1.95,6.53.58,6.61,1.75,13.18,2.72,19.75,1.2,8.18,2.42,16.36,3.63,24.54.54.36,1.08.73,1.62,1.09,1-1.5,1.79-3.22,3.04-4.48,18.07-18.17,35.99-36.5,54.43-54.29,6.41-6.19,11.05-12.44,10.62-21.75-.16-3.44.76-6.93,1.14-10.4,1.45-13.17,2.89-26.34,4.43-40.36ZM457.68,21.24c-15.14-.86-74.98,9.4-88.97,14.99,24.42,24.43,48.99,49,73.63,73.65,7.9-28.71,12.98-58.24,15.33-88.64Z"/>
<path class="cls-1" fill="currentColor" stroke="currentColor" d="M291.63,126.91c33.31,0,59.93,26.67,59.89,59.99-.04,33.12-27.1,60.1-60.12,59.93-32.8-.17-59.81-27.22-59.8-59.9,0-33.16,26.87-60.03,60.03-60.02ZM331.51,186.97c.12-21.91-17.51-39.81-39.44-40.04-21.98-.22-40.22,17.67-40.44,39.69-.22,21.6,18.39,40.26,40.09,40.19,21.74-.07,39.67-18.02,39.78-39.84Z"/>
<path class="cls-1" fill="currentColor" stroke="currentColor" d="M137.38,266.19c-5.52.1-9.94-4.11-10.05-9.57-.1-5.41,4.26-9.98,9.63-10.08,5.31-.1,9.97,4.36,10.11,9.67.14,5.32-4.29,9.88-9.7,9.98Z"/>
</g></svg>