<svg xmlns="http://www.w3.org/2000/svg" width="40.527" height="37.191" viewBox="0 0 40.527 37.191"><g transform="translate(-734.749 -8622.559)"><path d="M283.6,2247.83a2.027,2.027,0,0,0-2.768.744l-8.587,14.9-8.587,14.9a2.027,2.027,0,0,0,3.512,2.025l8.587-14.9,8.587-14.9A2.029,2.029,0,0,0,283.6,2247.83Z" transform="translate(481 6375)" fill="#656d79"/><path d="M260.643,2284.75a6.89,6.89,0,1,1,6.884-6.894A6.9,6.9,0,0,1,260.643,2284.75Zm-.006-9.73a2.837,2.837,0,1,0,2.837,2.835A2.84,2.84,0,0,0,260.637,2275.02Z" transform="translate(481 6375)" fill="#656d79"/><path d="M271.139,2261.54a2.028,2.028,0,0,1-1.758-1.012l-5.736-9.924a2.027,2.027,0,1,1,3.509-2.029l5.737,9.924a2.026,2.026,0,0,1-.74,2.769A1.946,1.946,0,0,1,271.139,2261.54Z" transform="translate(481 6375)" fill="#656d79"/><path d="M282.612,2281.39a2.026,2.026,0,0,1-1.758-1.012l-5.737-9.924a2.027,2.027,0,1,1,3.509-2.029l5.737,9.924a2.026,2.026,0,0,1-1.751,3.041Z" transform="translate(481 6375)" fill="#656d79"/><path d="M287.389,2284.74a6.89,6.89,0,1,1,6.887-6.894A6.9,6.9,0,0,1,287.389,2284.74Zm-.006-9.73a2.837,2.837,0,1,0,2.839,2.835A2.84,2.84,0,0,0,287.383,2275.01Z" transform="translate(481 6375)" fill="#656d79"/></g></svg>