<svg xmlns="http://www.w3.org/2000/svg" width="40" height="40" viewBox="0 0 40 40"><g transform="translate(-3233.795 -1756.774)"><circle cx="5.81" cy="5.81" r="5.81" transform="translate(3247.985 1770.964)" fill="none" stroke="currentColor" stroke-linecap="round" stroke-linejoin="round" stroke-width="4"/><path d="M3271.795,1780.164v-6.781h-5.449a12.929,12.929,0,0,0-1.277-3.089l3.851-3.851-4.794-4.8-3.851,3.852a13.1,13.1,0,0,0-3.09-1.287v-5.439h-6.78v5.439a13.08,13.08,0,0,0-3.089,1.287l-3.851-3.852-4.8,4.8,3.852,3.851a12.929,12.929,0,0,0-1.277,3.089h-5.45v6.781h5.45a12.929,12.929,0,0,0,1.277,3.089l-3.852,3.851,4.8,4.8,3.851-3.852a13.08,13.08,0,0,0,3.089,1.287v5.44h6.78v-5.44a13.1,13.1,0,0,0,3.09-1.287l3.851,3.852,4.794-4.8-3.851-3.851a12.929,12.929,0,0,0,1.277-3.089Z" fill="none" stroke="currentColor" stroke-linecap="round" stroke-linejoin="round" stroke-width="4"/></g></svg>