<svg xmlns="http://www.w3.org/2000/svg" width="45.758" height="49.91" viewBox="0 0 45.758 49.91"><g transform="translate(-561.356 -7578.17)"><g transform="translate(480.541 6455)"><path d="M120.147,1173.08H87.24a6.432,6.432,0,0,1-6.425-6.425v-30.919a6.434,6.434,0,0,1,6.426-6.426h3.191v4H87.24a2.429,2.429,0,0,0-2.426,2.426v30.919a2.428,2.428,0,0,0,2.425,2.425h32.908a2.429,2.429,0,0,0,2.426-2.425v-30.919a2.428,2.428,0,0,0-2.426-2.426h-3.4v-4h3.4a6.434,6.434,0,0,1,6.426,6.426v30.919A6.432,6.432,0,0,1,120.147,1173.08Z" fill="#656d79"/><rect width="19.819" height="4" transform="translate(93.805 1123.17)" fill="#656d79"/><path d="M108.9,1132.73l-2.828-2.828,6.088-6.088a2.142,2.142,0,0,1,3.44.574l2.954,6.1a2,2,0,0,1-.924,2.669h0a2,2,0,0,1-2.674-.927l-1.81-3.744Zm6.1-6.1-.014.014S114.989,1126.64,114.994,1126.63Z" fill="#656d79"/><path d="M108.287,1141.76h-.051a3.335,3.335,0,0,1-2.51-1.14l-4.838-5.537,5.182-5.184,2.829,2.828-2.539,2.539,1.94,2.221,6.862-7.451a2,2,0,0,1,2.83-.112h0a2,2,0,0,1,.112,2.822l-7.288,7.911A3.456,3.456,0,0,1,108.287,1141.76Z" fill="#656d79"/><path d="M98.462,1132.73l2.828-2.828-6.088-6.088a2.142,2.142,0,0,0-3.44.574l-2.954,6.1a2,2,0,0,0,.924,2.669h0a2,2,0,0,0,2.674-.927l1.81-3.744Zm-6.1-6.1.014.014S92.37,1126.64,92.366,1126.63Z" fill="#656d79"/><path d="M99.073,1141.76h.051a3.335,3.335,0,0,0,2.51-1.14l4.838-5.537-5.182-5.184-2.829,2.828,2.538,2.539-1.94,2.221-6.861-7.451a2,2,0,0,0-2.83-.112h0a2,2,0,0,0-.112,2.822l7.288,7.911A3.455,3.455,0,0,0,99.073,1141.76Z" fill="#656d79"/><path d="M109.642,1148.98h0a1.5,1.5,0,0,1,1.5-1.5h6.395a1.5,1.5,0,0,1,1.5,1.5h0a1.5,1.5,0,0,1-1.5,1.5h-6.395A1.5,1.5,0,0,1,109.642,1148.98Z" fill="#656d79"/><path d="M104.725,1171.23h-3v-21.417a1.5,1.5,0,0,1,1.5-1.5h0a1.5,1.5,0,0,1,1.5,1.5Z" fill="#656d79"/></g></g></svg>