<svg xmlns="http://www.w3.org/2000/svg" width="50.113" height="45.996" viewBox="0 0 50.113 45.996"><g transform="translate(-561.358 -7219.653)"><g transform="translate(480.541 6455)"><path d="M112.932,810.149H97.991V791.891a3.148,3.148,0,0,1,3.144-3.144h8.654a3.148,3.148,0,0,1,3.144,3.144v18.258Zm-11.941-3h8.941V791.891a.144.144,0,0,0-.144-.144h-8.654a.145.145,0,0,0-.144.144v15.258Z" fill="#656d79"/><path d="M123.6,810.649H88.93a4.578,4.578,0,0,1-4.578-4.578v-17.92a2,2,0,0,1,2-2h0a2,2,0,0,1,2,2v17.92a.58.58,0,0,0,.578.578H123.6a.58.58,0,0,0,.578-.578V782.907h4v23.164A4.578,4.578,0,0,1,123.6,810.649Z" fill="#656d79"/><path d="M123.142,785.351a7.789,7.789,0,0,1-5.834-2.633,7.744,7.744,0,0,1-11.428-.045,7.752,7.752,0,0,1-11.5-.029,7.785,7.785,0,0,1-6.305,2.551,7.985,7.985,0,0,1-7.255-8.089V776.5l6.7-9.976a4.078,4.078,0,0,1,3.385-1.809l29.923-.059h.006a4.07,4.07,0,0,1,3.413,1.839l6.69,10.152v.6a7.984,7.984,0,0,1-7.252,8.088C123.5,785.346,123.319,785.351,123.142,785.351Zm-5.8-7.841h.032a2.519,2.519,0,0,1,2.284,1.538,3.793,3.793,0,0,0,3.742,2.294,3.981,3.981,0,0,0,3.49-3.551l-6-9.1-30,.02-.07.037-5.981,8.912a3.981,3.981,0,0,0,3.491,3.543,3.751,3.751,0,0,0,3.723-2.256,2.527,2.527,0,0,1,2.306-1.516h0a2.537,2.537,0,0,1,2.317,1.519,3.76,3.76,0,0,0,6.893.01,2.516,2.516,0,0,1,2.294-1.505h0a2.514,2.514,0,0,1,2.294,1.506,3.756,3.756,0,0,0,6.867.036A2.537,2.537,0,0,1,117.344,777.51Z" fill="#656d79"/></g></g></svg>