<svg xmlns="http://www.w3.org/2000/svg" width="40" height="29.572" viewBox="0 0 40 29.572"><g transform="translate(-2668.977 -5558.322)"><path d="M2678.089,5568.623h-4.112a3,3,0,0,0-3,3v4.222a3,3,0,0,0,3,3h4.112a3,3,0,0,1,2.059.818l5.489,5.181a1,1,0,0,0,1.686-.727v-20.765a1,1,0,0,0-1.686-.728l-5.489,5.181A3,3,0,0,1,2678.089,5568.623Z" fill="none" stroke="currentColor" stroke-linecap="round" stroke-linejoin="round" stroke-width="4"/><path d="M2695.335,5578.664a6.78,6.78,0,0,0,0-11.113" fill="none" stroke="currentColor" stroke-linecap="round" stroke-linejoin="round" stroke-width="4"/><path d="M2701.352,5561.138a15.547,15.547,0,0,1,0,23.939" fill="none" stroke="currentColor" stroke-linecap="round" stroke-linejoin="round" stroke-width="4"/></g></svg>