<svg xmlns="http://www.w3.org/2000/svg" width="38.858" height="37.541" viewBox="0 0 38.858 37.541"><g transform="translate(-904.434 -7735.059)"><path d="M433.227,1397.6a3.788,3.788,0,0,1-3.6-4.943l2.858-8.908-7.51-5.568a3.784,3.784,0,0,1,2.254-6.824h9.215l2.821-8.683a3.783,3.783,0,0,1,7.2,0l2.821,8.683h9.22a3.784,3.784,0,0,1,2.256,6.823l-7.515,5.58,2.852,8.839a3.784,3.784,0,0,1-5.818,4.229l-7.41-5.354-7.41,5.4A3.758,3.758,0,0,1,433.227,1397.6Zm-4.829-22.07,6.791,5.035a3.781,3.781,0,0,1,1.348,4.2l-2.579,8.038,6.678-4.864a3.768,3.768,0,0,1,4.445-.009l6.678,4.826-2.574-7.976a3.782,3.782,0,0,1,1.345-4.2l6.8-5.047H449a3.774,3.774,0,0,1-3.6-2.616l-2.539-7.814-2.54,7.815a3.776,3.776,0,0,1-3.6,2.615Zm30.1,0h0Z" transform="translate(481 6375)" fill="#656d79"/></g></svg>