<svg xmlns="http://www.w3.org/2000/svg" width="40.054" height="34.961" viewBox="0 0 40.054 34.961"><g transform="translate(-3045.496 -3822.128)"><path d="M3080.2,3837.793v13.3a4,4,0,0,1-4,4h-21.351a4,4,0,0,1-4-4v-8.427" fill="none" stroke="currentColor" stroke-linecap="round" stroke-linejoin="round" stroke-width="4"/><path d="M3052.984,3824.128a3,3,0,0,0-2.835,2.019l-2.384,6.892c-.873,2.521.681,4.754,3.55,4.754a6.431,6.431,0,0,0,5.229-2.919,4.276,4.276,0,0,0,4.243,2.919,5.3,5.3,0,0,1,9.471,0h0a4.276,4.276,0,0,0,4.243-2.919,6.43,6.43,0,0,0,5.229,2.919h0c2.869,0,4.423-2.233,3.55-4.754l-2.384-6.892a3,3,0,0,0-2.835-2.019Z" fill="none" stroke="currentColor" stroke-linecap="round" stroke-linejoin="round" stroke-width="4"/><path d="M3069.843,3855.089h-8.554v-7.758a4.069,4.069,0,0,1,4.069-4.069h.416a4.069,4.069,0,0,1,4.069,4.069Z" fill="none" stroke="currentColor" stroke-linecap="round" stroke-linejoin="round" stroke-width="4"/></g></svg>