<svg xmlns="http://www.w3.org/2000/svg" width="38.91" height="39.017" viewBox="0 0 38.91 39.017"><g transform="translate(-904.633 -7403.382)"><g transform="translate(480.541 6455)"><path d="M443.125,987.4a7.813,7.813,0,0,1-5.559-2.26L426.42,974.13a7.853,7.853,0,0,1-.074-11.087l13.768-13.968a1.956,1.956,0,0,1,1.385-.585l17.542-.108a3.833,3.833,0,0,1,3.853,3.806L463,969.73a1.962,1.962,0,0,1-.566,1.39l-13.778,13.951A7.822,7.822,0,0,1,443.125,987.4Zm-.785-35-13.2,13.392a3.927,3.927,0,0,0,.036,5.545l11.145,11.009a3.931,3.931,0,0,0,5.547-.034l13.207-13.373-.1-16.73Z" fill="#656d79"/><path d="M453.837,962.079a2.941,2.941,0,1,1-.026-4.159A2.941,2.941,0,0,1,453.837,962.079Z" fill="#656d79"/></g></g></svg>