<svg xmlns="http://www.w3.org/2000/svg" width="40" height="40" viewBox="0 0 40 40"><g transform="translate(-2480.704 -5740.517)"><path d="M2517.506,5768.244l-2.779-2.778a4.09,4.09,0,0,0-5.785,0l-1.5,1.5a5.113,5.113,0,0,1-7.231,0l-5.956-5.955a5.114,5.114,0,0,1,0-7.232l1.5-1.5a4.089,4.089,0,0,0,0-5.785l-2.779-2.779a4.09,4.09,0,0,0-5.785,0h0a15.318,15.318,0,0,0,0,21.664l8.649,8.65a15.32,15.32,0,0,0,21.665,0h0A4.091,4.091,0,0,0,2517.506,5768.244Z" fill="none" stroke="currentColor" stroke-linecap="round" stroke-linejoin="round" stroke-width="4"/></g></svg>