<svg xmlns="http://www.w3.org/2000/svg" width="40.584" height="40.584" viewBox="0 0 40.584 40.584"><g transform="translate(-2668.393 -5740.517)"><line x1="32.887" y2="32.887" transform="translate(2670.977 5745.63)" fill="none" stroke="currentColor" stroke-linecap="round" stroke-linejoin="round" stroke-width="3.654"/><path d="M2681.952,5760.334a5.116,5.116,0,0,1,.572-6.552l1.5-1.5a4.091,4.091,0,0,0,0-5.785l-2.779-2.779a4.09,4.09,0,0,0-5.785,0h0a15.317,15.317,0,0,0,0,21.664" fill="none" stroke="currentColor" stroke-linecap="round" stroke-linejoin="round" stroke-width="4"/><path d="M2679.98,5769.9l4.133,4.133a15.32,15.32,0,0,0,21.665,0h0a4.091,4.091,0,0,0,0-5.785l-2.779-2.778a4.09,4.09,0,0,0-5.785,0l-1.5,1.5a5.113,5.113,0,0,1-7.231,0l-2.866-2.866" fill="none" stroke="currentColor" stroke-linecap="round" stroke-linejoin="round" stroke-width="4"/></g></svg>