<svg xmlns="http://www.w3.org/2000/svg" width="40" height="29.177" viewBox="0 0 40 29.177"><g transform="translate(-3234.032 -6844.837)"><path d="M3254.032,6872.014h17.155a.845.845,0,0,0,.845-.845v-6.813h-.069a4.858,4.858,0,0,1-4.858-4.859h0a4.858,4.858,0,0,1,4.858-4.858h.069v-6.957a.845.845,0,0,0-.845-.845H3247.6" fill="none" stroke="currentColor" stroke-linecap="round" stroke-linejoin="round" stroke-width="4"/><path d="M3272.032,6854.639h-.069a4.858,4.858,0,0,0-4.858,4.858h0a4.858,4.858,0,0,0,4.858,4.859h.069" fill="none" stroke="currentColor" stroke-linecap="round" stroke-linejoin="round" stroke-width="4"/><path d="M3254.032,6872.014h-17.155a.846.846,0,0,1-.845-.845v-6.813h.069a4.859,4.859,0,0,0,4.859-4.859h0a4.859,4.859,0,0,0-4.859-4.858h-.069v-6.957a.845.845,0,0,1,.845-.845h4.723" fill="none" stroke="currentColor" stroke-linecap="round" stroke-linejoin="round" stroke-width="4"/><path d="M3236.032,6854.639h.069a4.859,4.859,0,0,1,4.859,4.858h0a4.859,4.859,0,0,1-4.859,4.859h-.069" fill="none" stroke="currentColor" stroke-linecap="round" stroke-linejoin="round" stroke-width="4"/><line x2="9.171" transform="translate(3249.446 6856.458)" fill="none" stroke="currentColor" stroke-linecap="round" stroke-linejoin="round" stroke-width="4"/><line x2="9.171" transform="translate(3249.446 6856.458)" fill="none" stroke="currentColor" stroke-linecap="round" stroke-linejoin="round" stroke-width="4"/><line x2="9.171" transform="translate(3249.446 6862.393)" fill="none" stroke="currentColor" stroke-linecap="round" stroke-linejoin="round" stroke-width="4"/></g></svg>