<svg xmlns="http://www.w3.org/2000/svg" width="39.674" height="39.674" viewBox="0 0 39.674 39.674"><g transform="translate(-2106.546 -7401.055)"><line x2="23.575" transform="translate(2120.807 7409.607)" fill="none" stroke="currentColor" stroke-linecap="round" stroke-linejoin="round" stroke-width="3.674"/><line x2="7.702" transform="translate(2108.383 7409.607)" fill="none" stroke="currentColor" stroke-linecap="round" stroke-linejoin="round" stroke-width="3.674"/><path d="M2141.082,7409.607v25.285a4,4,0,0,1-4,4H2115.8a4,4,0,0,1-4-4v-25.285" fill="none" stroke="currentColor" stroke-linecap="round" stroke-linejoin="round" stroke-width="3.674"/><line y2="14.415" transform="translate(2133.787 7417.042)" fill="none" stroke="currentColor" stroke-linecap="round" stroke-linejoin="round" stroke-width="3.674"/><line y2="14.415" transform="translate(2119.092 7417.042)" fill="none" stroke="currentColor" stroke-linecap="round" stroke-linejoin="round" stroke-width="3.674"/><line y2="14.415" transform="translate(2126.457 7417.042)" fill="none" stroke="currentColor" stroke-linecap="round" stroke-linejoin="round" stroke-width="3.674"/><path d="M5.575,0h0A5.575,5.575,0,0,1,11.15,5.575V6.716a0,0,0,0,1,0,0H0a0,0,0,0,1,0,0V5.575A5.575,5.575,0,0,1,5.575,0Z" transform="translate(2120.807 7402.892)" fill="none" stroke="currentColor" stroke-linecap="round" stroke-linejoin="round" stroke-width="3.674"/></g></svg>