<svg xmlns="http://www.w3.org/2000/svg" width="36.486" height="34.779" viewBox="0 0 36.486 34.779"><g transform="translate(-1076.924 -7914.911)"><path d="M613.927,1559.7a9.895,9.895,0,1,1,9.9-9.894A9.906,9.906,0,0,1,613.927,1559.7Zm0-15.83a5.937,5.937,0,1,0,5.937,5.937A5.943,5.943,0,0,0,613.927,1543.87Z" transform="translate(481 6375)" fill="#656d79"/><path d="M630.4,1574.69h0a1.976,1.976,0,0,1-1.948-1.559,7.9,7.9,0,0,0-7.733-6.329h-13.1a7.9,7.9,0,0,0-7.734,6.329,1.974,1.974,0,0,1-1.948,1.559h0a1.989,1.989,0,0,1-1.976-2.34,11.909,11.909,0,0,1,11.657-9.548h13.1a11.909,11.909,0,0,1,11.657,9.548A1.987,1.987,0,0,1,630.4,1574.69Z" transform="translate(481 6375)" fill="#656d79"/></g></svg>