<svg xmlns="http://www.w3.org/2000/svg" width="40" height="40" viewBox="0 0 40 40"><g transform="translate(-2857.25 -7588.047)"><path d="M2859.25,7608.047c0,2.312,2.282,4.154,3.116,6.165.864,2.084.585,4.992,2.156,6.563s4.479,1.291,6.563,2.156c2.011.833,3.852,3.116,6.165,3.116s4.154-2.283,6.164-3.116c2.084-.865,4.993-.585,6.564-2.156s1.291-4.479,2.155-6.563c.834-2.011,3.117-3.853,3.117-6.165s-2.283-4.154-3.117-6.165c-.864-2.084-.585-4.992-2.156-6.563s-4.479-1.291-6.563-2.156c-2.01-.833-3.852-3.116-6.164-3.116s-4.154,2.283-6.165,3.116c-2.084.865-4.993.586-6.563,2.156s-1.292,4.479-2.156,6.563C2861.532,7603.893,2859.25,7605.735,2859.25,7608.047Z" fill="none" stroke="currentColor" stroke-linecap="round" stroke-linejoin="round" stroke-width="4"/><line y1="8.269" x2="8.269" transform="translate(2875.697 7602.923)" fill="none" stroke="currentColor" stroke-linecap="round" stroke-linejoin="round" stroke-width="4"/><line x1="4.569" y1="4.165" transform="translate(2871.127 7607.027)" fill="none" stroke="currentColor" stroke-linecap="round" stroke-linejoin="round" stroke-width="4"/><path d="M2877.25,7598.291" fill="none" stroke="currentColor" stroke-linecap="round" stroke-linejoin="round" stroke-width="4"/></g></svg>