<svg xmlns="http://www.w3.org/2000/svg" width="45.379" height="44.145" viewBox="0 0 45.379 44.145"><g transform="translate(-1070.265 -7400.818)"><g transform="translate(480.541 6455)"><path d="M631.7,979.193h-5.313a2.972,2.972,0,0,1-2.969-2.969v-5a2.972,2.972,0,0,1,2.969-2.969H631.7a2.972,2.972,0,0,1,2.969,2.969v5A2.972,2.972,0,0,1,631.7,979.193Zm-.031-7.969-5.281.031.031,4.969,5.25-.031Z" fill="#656d79"/><path d="M627.745,989.963H597.081a7.366,7.366,0,0,1-7.358-7.357v-28.7h4v28.7a3.36,3.36,0,0,0,3.358,3.357h30.664a3.361,3.361,0,0,0,3.357-3.357V964.389a3.36,3.36,0,0,0-3.357-3.357H597.09v-4h30.655a7.366,7.366,0,0,1,7.357,7.357v18.217A7.366,7.366,0,0,1,627.745,989.963Z" fill="#656d79"/><path d="M597.33,961.032a7.615,7.615,0,0,1-7.542-8.608,7.785,7.785,0,0,1,7.808-6.606h26.869a6.376,6.376,0,0,1,6.376,6.376v1.291a2,2,0,0,1-2,2h0a2,2,0,0,1-2-2v-1.291a2.376,2.376,0,0,0-2.376-2.376h-27.03a3.675,3.675,0,0,0-3.634,2.849,3.613,3.613,0,0,0,3.529,4.365Z" fill="#656d79"/></g></g></svg>