<svg xmlns="http://www.w3.org/2000/svg" width="46.809" height="34.977" viewBox="0 0 46.809 34.977"><g transform="translate(-2477.483 -6841.937)"><path d="M2515.483,6848.612v-.675a4,4,0,0,0-4-4h-27.151a4.849,4.849,0,0,0-4.849,4.849h0a4.848,4.848,0,0,0,4.849,4.848h27.151a4,4,0,0,1,4,4v14.28a3,3,0,0,1-3,3h-27a6,6,0,0,1-6-6v-19.9a5.075,5.075,0,0,1,5.075-5.074h19.521" fill="none" stroke="currentColor" stroke-linecap="round" stroke-linejoin="round" stroke-width="4"/><path d="M3,0h8.925a0,0,0,0,1,0,0V7.17a0,0,0,0,1,0,0H3a3,3,0,0,1-3-3V3A3,3,0,0,1,3,0Z" transform="translate(2503.558 6860.406)" fill="none" stroke="currentColor" stroke-linecap="round" stroke-linejoin="round" stroke-width="4"/><path d="M2524.292,6854.777" fill="none" stroke="currentColor" stroke-linecap="round" stroke-linejoin="round" stroke-width="4"/></g></svg>