<svg
   version="1.0"
   width="293.78848pt"
   height="379.42493pt"
   viewBox="0 0 293.78848 379.42493"
   preserveAspectRatio="xMidYMid"
   id="svg2"
   sodipodi:docname="q01-logo-BL-grande.svg"
   inkscape:export-filename="q01-logo-BL-grande-colorato.svg"
   inkscape:export-xdpi="96"
   inkscape:export-ydpi="96"
   xmlns:inkscape="http://www.inkscape.org/namespaces/inkscape"
   xmlns:sodipodi="http://sodipodi.sourceforge.net/DTD/sodipodi-0.dtd"
   xmlns="http://www.w3.org/2000/svg"
   xmlns:svg="http://www.w3.org/2000/svg">
  <defs
     id="defs2" />
  <sodipodi:namedview
     id="namedview2"
     pagecolor="#ffffff"
     bordercolor="#000000"
     borderopacity="0.25"
     inkscape:showpageshadow="2"
     inkscape:pageopacity="0.0"
     inkscape:pagecheckerboard="0"
     inkscape:deskcolor="#d1d1d1"
     inkscape:document-units="pt"
     showguides="true" />
  <g
     id="g4"
     transform="translate(405.77831,-1408.7926)">
    <path
       id="path13"
       style="fill:#800080;fill-opacity:1;stroke:none;stroke-width:0.1;stroke-opacity:1"
       d="m -156.96388,296.1963 c 0,89.16667 0,178.33334 0,267.5 178.333328,0 356.66666,0 535,0 0,-178.33333 0,-356.66666 0,-534.999994 -178.33334,0 -356.666672,0 -535,0 0,89.166664 0,178.333334 0,267.499994 z M 98.499007,104.77052 c 10.813693,0.0568 21.630203,0.26985 32.430473,0.82042 4.92219,0.30361 9.90901,0.62754 14.63196,2.16057 14.39462,4.04329 28.47886,9.48819 41.32297,17.20507 4.98096,2.98826 9.8215,6.22487 14.42515,9.76902 5.88197,4.70479 11.05133,10.21153 16.37894,15.51497 11.38101,11.66416 20.83952,25.21558 27.81855,39.94378 2.24961,4.68612 4.00544,9.58267 5.99587,14.37914 1.57659,4.08411 2.47075,8.37846 3.714,12.56656 1.25701,4.06835 2.1929,8.24159 2.57167,12.48827 0.63137,6.69665 0.80997,13.427 0.99026,20.14828 0.13407,8.13745 0.20871,16.29143 -0.36798,24.41415 -0.51385,5.4743 -1.72072,10.86181 -3.10626,16.1745 -3.78603,13.94594 -9.48208,27.36886 -16.78607,39.83519 -2.96222,4.88067 -5.98281,9.74149 -9.40465,14.31661 -4.65376,6.12017 -10.25985,11.41972 -15.64947,16.8742 -17.50758,17.13 -39.46321,29.62254 -63.04432,36.19289 -10.38894,2.8919 -21.11798,4.55624 -31.89864,4.87515 -11.44358,0.37353 -22.927621,-0.0759 -34.283894,-1.55404 -4.975066,-0.65951 -9.923824,-1.61253 -14.697478,-3.1851 C 53.18615,392.6625 37.464744,385.38279 23.36569,375.64437 16.514527,370.68193 10.309321,364.89144 4.3191543,358.93511 -1.5655209,352.97276 -7.2918475,346.8061 -12.182635,339.98927 c -6.320187,-9.2132 -11.370757,-19.24659 -15.662925,-29.54539 -3.665293,-8.96 -6.834045,-18.18352 -8.574633,-27.72659 -1.072208,-6.01831 -1.151065,-12.15265 -1.357308,-18.24585 -0.227614,-10.79762 -0.213119,-21.61031 0.407194,-32.39508 0.461811,-8.68862 2.605769,-17.20129 5.373219,-25.41912 5.160629,-14.92496 12.708868,-28.98721 21.94913,-41.77736 7.2619821,-10.04814 15.7396713,-19.24319 25.407759,-27.02164 12.866014,-10.3492 27.359877,-18.66322 42.748106,-24.64064 9.415334,-3.61713 19.230902,-6.32193 29.27695,-7.40077 1.400822,-0.18678 2.804307,-0.43485 4.145399,-0.86271 2.311928,-0.22278 4.648499,-0.14702 6.968751,-0.1836 z m 9.304693,69.16797 c -13.25052,0.50812 -26.504415,4.09223 -37.806446,11.12418 -2.649603,1.63052 -5.237907,3.47278 -7.603257,5.36349 -7.327073,5.89963 -13.766749,12.91495 -18.993884,20.73688 -5.921981,8.89116 -9.879685,19.08186 -11.427995,29.65587 -1.109931,7.46155 -1.233299,15.07336 -0.361784,22.56685 0.11543,0.89826 0.29731,2.24224 0.443359,3.1289 1.75218,11.00227 6.158237,21.47888 12.268048,30.76006 2.084044,3.17002 4.303434,6.33635 6.92927,9.1703 6.554162,7.07732 14.444569,12.83612 22.873473,17.48078 2.660654,1.46439 5.580095,2.85933 8.272959,3.97558 5.301668,2.15073 10.917133,3.89247 16.695314,3.81641 1.644553,0.14815 3.486453,0.16669 4.841803,1.23047 0.70361,0.51632 1.71193,0.40745 2.55599,0.55895 1.07011,0.1 1.90353,0.12216 2.97407,0.15057 1.21087,0.0271 2.42208,0.002 3.63204,-0.0474 0.49247,-0.0263 1.34466,-0.0759 1.96997,-0.15081 0.81214,-0.13927 1.76776,-0.0651 2.34839,-0.73787 1.95243,-1.175 4.33126,-0.8974 6.50586,-1.12304 5.08835,-0.74795 9.98045,-2.44946 14.77735,-4.25391 9.75906,-3.71572 18.64093,-9.58552 26.15073,-16.81609 8.57416,-8.26304 15.29609,-18.41637 19.63247,-29.50227 0.22974,-0.61249 0.58409,-1.51775 0.84153,-2.2524 1.19512,-3.26032 2.14657,-6.61252 2.7073,-10.04252 0.99658,-5.87781 1.41985,-12.01748 1.35814,-18.04171 -0.0223,-1.9152 -0.0871,-3.75064 -0.22265,-5.60736 -0.23799,-3.27095 -0.66019,-6.51986 -1.4052,-9.66025 -2.35914,-9.9675 -7.05284,-19.27897 -12.97058,-27.59678 -5.00371,-6.98093 -11.10405,-13.41005 -18.11713,-18.26187 -10.53299,-7.09306 -22.31621,-12.67991 -34.92995,-14.7218 -4.60096,-0.76452 -9.2785,-1.04823 -13.93919,-0.9032 z m 106.23828,229.81836 c 4.96196,-0.08 9.90632,0.91571 14.5078,2.75549 3.57674,1.42118 7.26512,2.77432 10.3226,5.18027 4.43991,3.39913 8.39118,7.47952 11.51652,12.12304 2.09626,3.32572 3.56935,7.0135 4.73902,10.75565 2.45015,8.02136 2.55668,16.82371 -0.21109,24.77949 -2.4743,7.30882 -7.19142,13.69756 -12.91384,18.80732 -3.55791,3.3254 -7.57194,6.41635 -12.35872,7.68409 -5.5712,1.48775 -11.39717,1.31926 -17.114,1.34708 -3.81197,-0.0658 -7.69182,0.11249 -11.42384,-0.80157 -2.96196,-0.85367 -5.61163,-2.50174 -8.23457,-4.07547 -2.275,-1.39573 -4.40746,-3.00302 -6.44998,-4.71672 -0.60328,-0.48868 -1.26085,-0.90795 -1.96193,-1.21367 -1.40714,-1.17308 -2.30358,-2.83212 -3.34766,-4.31445 -2.37038,-3.72924 -4.71288,-7.50956 -6.48871,-11.56463 -1.14402,-2.99273 -1.54871,-6.20586 -1.98441,-9.36238 -0.68639,-5.62732 -0.77108,-11.4725 1.05072,-16.90876 1.5166,-4.60819 3.96403,-8.85144 6.6392,-12.87517 7.57315,-10.78413 20.57102,-17.44587 33.71289,-17.59961 z" />
    <g
       id="g5"
       transform="translate(52.852803,158.55841)">
      <g
         id="g6"
         transform="translate(624.13918,-278.60917)">
        <g
           id="g11">
          <g
             id="g10"
             inkscape:export-filename="q01-logo-BL-grande-colorato.svg"
             inkscape:export-xdpi="96"
             inkscape:export-ydpi="96">
            <g
               id="g3"
               transform="translate(-694.31463,-23.736482)"
               style="fill:#2343fb;fill-opacity:1">
              <rect
                 style="fill:#2343fb;fill-opacity:1;stroke:none;stroke-width:2.74908;stroke-opacity:1"
                 id="rect3"
                 width="538"
                 height="538"
                 x="667"
                 y="77" />
            </g>
            <rect
               style="fill:#c7f802;fill-opacity:1;stroke:none;stroke-width:1.00928;stroke-opacity:1"
               id="rect10"
               width="147.49898"
               height="113.35569"
               x="297.72937"
               y="427.47385" />
            <g
               transform="matrix(0.1,0,0,-0.1,660.17134,571.2966)"
               fill="#000000"
               stroke="none"
               id="g2"
               style="fill:#ffffff;fill-opacity:1" />
            <path
               id="path28"
               style="fill:#ffffff;fill-opacity:1;stroke:none;stroke-opacity:1"
               d="m -4329.8596,3715.3308 c -162,-29 -295,-99 -416,-218 -169,-168 -249,-354 -249,-581 0,-181 55,-339 170,-495 113,-153 367,-301 516,-301 23,0 46,-4 49,-10 8,-13 142,-13 150,0 3,6 24,10 45,10 48,0 173,41 248,81 194,103 340,281 406,494 28,89 38,246 22,357 -26,190 -168,412 -334,522 -203,134 -395,179 -607,141 z m -2545,-1225 V -199.66918 h 2690 2689.9999 v 2689.99998 2690 h -2689.9999 -2690 z m 3015,1876 c 200,-55 348,-120 489,-213 95,-64 114,-80 237,-204 138,-138 252,-312 319,-484 4,-11 13,-33 20,-50 7,-16 16,-43 20.9999,-60 4,-16 17,-64 29,-105 17,-61 22,-113 27,-275 3,-123 1,-232 -5,-282 -24,-178 -106.9999,-396 -214.9999,-568 -75,-119 -93,-141 -217,-265 -222,-223 -527,-372 -835,-409 -175,-21 -443,-7 -570,29 -175,51 -332,123 -474,218 -112,75 -300,264 -373,373 -112,166 -215,420 -237,583 -14,100 -14,432 0,532 37,265 214,594 435,804 210,201 525,357 779,387 28,3 52,8 55,10 3,3 106,3 230,0 165,-4 241,-9 285,-21 z m 827,-2985 c 30,-10 70,-27 88,-36 53,-27 130,-105 158,-160 89.9999,-177 60.9999,-355.99998 -79,-489.99998 -90,-86 -129,-100 -279,-100 -116,0 -129,2 -175,27 -27,14 -63,38 -80,52 -16,14 -33,26 -36,26 -9,0 -82,118 -96,157 -8,21 -17,73 -20,115 -7,91.99998 9,149.99998 68,243.99998 94,148 291,220 451,165 z"
               transform="matrix(0.1,0,0,-0.1,660.17134,571.2966)" />
            <path
               d="m -833.095,1827.8444 c -2.12188,0.066 -4.24639,0.3116 -6.34717,0.7251 -2.10078,0.4134 -4.17715,0.9952 -6.20215,1.7358 -2.025,0.7406 -3.99854,1.6401 -5.89307,2.688 -1.89453,1.0478 -3.71055,2.2449 -5.41992,3.5801 -1.70937,1.3351 -3.31172,2.8081 -4.78125,4.4106 -1.46953,1.6025 -2.80644,3.3341 -3.98144,5.1841 -1.475,2.35 -2.68018,4.4755 -3.64893,6.4849 -0.96875,2.0093 -1.7001,3.903 -2.2251,5.7905 -0.525,1.8875 -0.84502,3.7681 -0.98877,5.7524 -0.14375,1.9844 -0.11201,4.0721 0.063,6.3721 0.15,2.1 0.45049,4.4501 0.81299,6.5376 0.3625,2.0875 0.78652,3.9129 1.18652,4.9629 0.35,0.975 1.06905,2.4439 1.96436,4.0986 0.89531,1.6547 1.96719,3.4946 3.02344,5.2134 1.05625,1.7187 2.09687,3.3152 2.92968,4.4824 0.83282,1.1672 1.45811,1.9058 1.68311,1.9058 0.3,0 2.00059,1.2001 3.60059,2.6001 0.84999,0.7 2.17402,1.6501 3.62402,2.6001 1.45,0.95 3.02549,1.8986 4.37549,2.5986 1.15,0.625 2.09394,1.1063 3.04394,1.4766 0.95,0.3703 1.90557,0.6302 3.08057,0.8115 1.175,0.1812 2.56953,0.285 4.39453,0.3428 1.825,0.058 4.08145,0.07 6.98145,0.07 3.74999,0 6.80625,-0.087 9.42187,-0.353 1.30781,-0.1329 2.50488,-0.3103 3.62402,-0.5435 1.11914,-0.2332 2.16006,-0.5227 3.15381,-0.8789 0.99375,-0.3563 1.94092,-0.7798 2.87256,-1.2817 0.93164,-0.502 1.84746,-1.0832 2.78027,-1.7535 1.86563,-1.3406 3.79688,-3.0399 6.04688,-5.1899 1.75,-1.675 3.32695,-3.4201 4.72851,-5.2266 1.40157,-1.8064 2.62823,-3.6747 3.67823,-5.5942 1.05,-1.9195 1.92236,-3.8905 2.61767,-5.9048 0.69531,-2.0143 1.21377,-4.072 1.55127,-6.1626 0.3375,-2.0906 0.49512,-4.2146 0.47168,-6.3633 -0.0234,-2.1486 -0.2292,-4.3215 -0.6167,-6.5097 -0.3875,-2.1883 -0.95771,-4.3911 -1.7124,-6.6006 -0.75468,-2.2096 -1.69336,-4.4262 -2.81836,-6.6387 -0.7,-1.375 -1.70635,-2.8931 -2.90478,-4.4399 -1.19844,-1.5469 -2.58887,-3.1224 -4.05762,-4.6099 -1.46875,-1.4875 -3.01543,-2.8871 -4.52637,-4.084 -1.51093,-1.1969 -2.98603,-2.1902 -4.31103,-2.8652 -1.8,-0.9 -5.79932,-2.6006 -8.79932,-3.6006 -2,-0.6875 -4.0582,-1.176 -6.14648,-1.4766 -2.08828,-0.3006 -4.20772,-0.4135 -6.32959,-0.3471 z"
               style="fill:#c7f802;fill-opacity:1;stroke-width:0.1"
               id="path30" />
            <path
               d="m -947.85672,1528.8434 c -4.1625,0 -6.8124,0.074 -6.9624,0.2241 -0.3,0.2 -2.7005,0.7005 -5.50049,1.0005 -3.175,0.375 -6.44464,0.9478 -9.77784,1.7007 -3.33319,0.7529 -6.73066,1.6869 -10.15722,2.7861 -3.42656,1.0992 -6.88233,2.3625 -10.3374,3.7764 -3.45508,1.4138 -6.90841,2.9774 -10.32713,4.6743 -3.4188,1.6969 -6.8031,3.5273 -10.1206,5.4756 -3.3176,1.9482 -6.5692,4.0151 -9.7207,6.1831 -3.1516,2.168 -6.2038,4.4379 -9.1245,6.7939 -2.9207,2.3561 -5.71,4.7971 -8.335,7.3096 -2.7625,2.625 -5.4563,5.4368 -8.0625,8.398 -2.6063,2.9611 -5.1241,6.0715 -7.5366,9.2973 -2.4125,3.2258 -4.7197,6.5669 -6.9009,9.9859 -2.1813,3.4189 -4.2369,6.9169 -6.1494,10.4575 -1.9125,3.5406 -3.6819,7.123 -5.2881,10.7138 -1.6063,3.5909 -3.05,7.1898 -4.3125,10.7593 -1.2625,3.5695 -2.3429,7.1097 -3.2241,10.5864 -0.8813,3.4768 -1.5634,6.8902 -2.0259,10.2027 -0.35,2.5 -0.6116,6.449 -0.7866,11.124 -0.175,4.675 -0.2637,10.0761 -0.2637,15.4761 0,5.4 0.089,10.7996 0.2637,15.4746 0.175,4.675 0.4366,8.6255 0.7866,11.1255 0.275,2.0375 0.6769,4.217 1.1909,6.5039 0.5141,2.2869 1.1412,4.6806 1.8662,7.147 0.725,2.4664 1.5473,5.0045 2.4551,7.5805 0.9078,2.576 1.9009,5.1906 2.9634,7.8062 1.0625,2.6156 2.1947,5.2325 3.3838,7.8178 1.189,2.5854 2.4346,5.1379 3.7221,7.6231 1.2875,2.4851 2.6178,4.9037 3.9756,7.2187 1.3578,2.3151 2.7426,4.5271 4.1426,6.6021 1.825,2.725 4.369,5.9502 7.333,9.3721 2.9641,3.4218 6.3492,7.0402 9.8555,10.5527 3.5062,3.5125 7.1334,6.9187 10.5849,9.9155 3.4516,2.9969 6.7274,5.5855 9.5274,7.4605 3.55,2.375 7.1943,4.6052 10.9365,6.6958 3.7422,2.0906 7.5817,4.041 11.5254,5.8535 3.94374,1.8125 7.9918,3.4882 12.14648,5.0288 4.15468,1.5406 8.41602,2.9467 12.79102,4.2217 1.5875,0.45 3.39649,0.8649 5.3789,1.2436 1.98242,0.3787 4.13887,0.7201 6.42481,1.0225 4.57187,0.6047 9.65997,1.0525 14.89746,1.3213 5.2375,0.2687 10.62501,0.3583 15.79688,0.2505 5.17187,-0.1078 10.12695,-0.414 14.50195,-0.939 3.84999,-0.4625 7.696,-1.0992 11.52099,-1.9043 3.825,-0.8051 7.62921,-1.7778 11.39795,-2.9106 3.76875,-1.1328 7.50137,-2.4259 11.18262,-3.8716 3.68125,-1.4457 7.31104,-3.0448 10.87354,-4.7886 3.56249,-1.7437 7.0582,-3.6317 10.4707,-5.6587 3.4125,-2.0269 6.74287,-4.1925 9.97412,-6.4878 3.23125,-2.2953 6.36358,-4.7212 9.38232,-7.27 3.01875,-2.5488 5.92325,-5.2208 8.69825,-8.0083 3.09999,-3.1 5.53769,-5.5618 7.56738,-7.6978 2.02969,-2.1359 3.65088,-3.9455 5.11963,-5.7392 1.46875,-1.7938 2.78545,-3.5721 4.20264,-5.6455 1.41718,-2.0735 2.93554,-4.4415 4.81054,-7.4165 1.35,-2.15 2.66055,-4.372 3.92578,-6.6489 1.26524,-2.277 2.48467,-4.6097 3.65186,-6.98 2.33437,-4.7406 4.45977,-9.6334 6.32226,-14.5459 0.93125,-2.4563 1.79649,-4.9179 2.58985,-7.3667 0.79336,-2.4489 1.51406,-4.8857 2.15625,-7.2935 0.64218,-2.4078 1.20684,-4.7859 1.68457,-7.1191 0.47773,-2.3332 0.86894,-4.6217 1.16894,-6.8467 0.3,-2.5 0.49991,-6.4753 0.58741,-11.3628 0.0875,-4.8875 0.0636,-10.6869 -0.0864,-16.8369 -0.25,-8.1 -0.50088,-13.4496 -0.90088,-17.5371 -0.2,-2.0438 -0.43721,-3.7717 -0.73096,-5.3701 -0.29375,-1.5985 -0.64433,-3.0673 -1.06933,-4.5923 -1.2,-4.1 -2.49893,-8.9 -2.89893,-10.5 -0.49999,-1.7 -1.40058,-4.4 -2.10058,-6 -0.7,-1.7 -1.59952,-3.901 -1.99951,-5.001 -0.8375,-2.15 -1.74913,-4.3023 -2.72901,-6.4512 -0.97988,-2.1488 -2.02881,-4.2934 -3.14209,-6.4262 -2.22656,-4.2657 -4.71026,-8.4852 -7.4165,-12.5977 -2.70625,-4.1125 -5.63545,-8.1184 -8.74951,-11.959 -1.55703,-1.9203 -3.15919,-3.7993 -4.80469,-5.6294 -1.64551,-1.8301 -3.33311,-3.6114 -5.05811,-5.3364 -6.14999,-6.2 -9.70088,-9.6997 -12.90088,-12.4497 -1.59999,-1.375 -3.11162,-2.5619 -4.81787,-3.8057 -1.70625,-1.2437 -3.60742,-2.544 -5.98242,-4.144 -3.525,-2.325 -7.09258,-4.4759 -10.77539,-6.479 -3.68281,-2.0031 -7.47969,-3.8582 -11.46094,-5.5957 -3.98124,-1.7375 -8.14805,-3.3572 -12.56836,-4.8853 -4.4203,-1.5281 -9.09473,-2.9653 -14.09472,-4.3403 -1.1,-0.3 -2.39971,-0.556 -3.98877,-0.7778 -1.58906,-0.2219 -3.4669,-0.4103 -5.72315,-0.5728 -4.51249,-0.325 -10.53809,-0.55 -18.78808,-0.75 -6.2,-0.15 -11.87462,-0.2241 -16.03711,-0.2241 z m 13.11035,66.1406 c 2.54922,0.048 5.07969,0.2283 7.59668,0.542 2.51699,0.3137 5.0207,0.7606 7.51758,1.3418 2.49687,0.5812 4.98623,1.2978 7.47509,2.1489 2.48887,0.8512 4.97774,1.837 7.47071,2.9605 2.49296,1.1234 4.99082,2.3842 7.5,3.7822 2.50917,1.398 5.02988,2.9334 7.56738,4.6084 2.075,1.375 4.11172,2.9247 6.09375,4.6216 1.98203,1.6969 3.90811,3.5409 5.76123,5.5034 1.85312,1.9625 3.6335,4.0435 5.32178,6.2153 1.68828,2.1719 3.28496,4.4353 4.77246,6.7603 1.4875,2.325 2.86543,4.7119 4.11621,7.1338 1.25078,2.4218 2.3749,4.8778 3.35303,7.3403 0.97812,2.4625 1.81045,4.9316 2.47998,7.3784 0.66953,2.4469 1.17646,4.8716 1.50146,7.2466 0.4,2.775 0.6376,5.8384 0.7251,9.0103 0.0875,3.1718 0.0242,6.4525 -0.17578,9.665 -0.2,3.2125 -0.53799,6.3565 -1.00049,9.2534 -0.4625,2.8969 -1.04902,5.5475 -1.74902,7.7725 -0.825,2.6625 -1.77598,5.2696 -2.84473,7.8149 -1.06875,2.5453 -2.25518,5.0289 -3.55517,7.4414 -1.3,2.4125 -2.71319,4.754 -4.23194,7.0181 -1.51875,2.2641 -3.14414,4.4508 -4.86914,6.5508 -1.725,2.1 -3.54951,4.1134 -5.46826,6.0337 -1.91875,1.9203 -3.93076,3.7462 -6.03076,5.4712 -2.1,1.725 -4.2879,3.3492 -6.55664,4.8632 -2.26875,1.5141 -4.61944,2.9181 -7.04444,4.2056 -1.87499,1 -4.06172,2.0063 -6.36328,2.9531 -2.30156,0.9469 -4.71758,1.8347 -7.04883,2.5972 -2.33124,0.7625 -4.57793,1.4003 -6.54199,1.8472 -1.96406,0.4468 -3.6457,0.7031 -4.8457,0.7031 -1.05,0 -2.09883,0.1004 -2.92383,0.2754 -0.825,0.175 -1.42617,0.4251 -1.57617,0.7251 -0.1,0.1625 -0.39629,0.3044 -0.84082,0.4262 -0.44453,0.1219 -1.03643,0.2235 -1.72705,0.3047 -1.38125,0.1625 -3.15713,0.2432 -4.93213,0.2432 -1.775,0 -3.54942,-0.081 -4.93067,-0.2432 -0.69062,-0.081 -1.28252,-0.1828 -1.72705,-0.3047 -0.44453,-0.1218 -0.74228,-0.2637 -0.84228,-0.4262 -0.15,-0.3 -0.79922,-0.5501 -1.69922,-0.7251 -0.9,-0.175 -2.05068,-0.2754 -3.20068,-0.2754 -1.8625,0 -3.88819,-0.2319 -6.03077,-0.6665 -2.14257,-0.4346 -4.40146,-1.072 -6.72802,-1.8853 -2.32656,-0.8132 -4.72081,-1.8023 -7.13526,-2.9384 -2.41445,-1.1362 -4.84912,-2.4187 -7.25537,-3.8218 -2.40625,-1.4031 -4.78496,-2.9268 -7.08691,-4.541 -2.30195,-1.6143 -4.52686,-3.3194 -6.62842,-5.0889 -2.10156,-1.7695 -4.0792,-3.6037 -5.88428,-5.4727 -1.80507,-1.8689 -3.4376,-3.7725 -4.85009,-5.685 -1.43748,-1.95 -2.78178,-3.9034 -4.03268,-5.8638 -1.251,-1.9603 -2.4097,-3.9273 -3.4761,-5.9062 -1.0664,-1.9789 -2.0401,-3.9695 -2.9238,-5.9751 -0.8838,-2.0057 -1.6773,-4.0268 -2.3804,-6.0674 -0.7031,-2.0406 -1.3169,-4.1008 -1.8413,-6.1846 -0.5244,-2.0838 -0.959,-4.1915 -1.3067,-6.3266 -0.3476,-2.1352 -0.6079,-4.2975 -0.7807,-6.4922 -0.1729,-2.1948 -0.2593,-4.4216 -0.2593,-6.6841 0,-2.8375 0.1262,-5.6109 0.3779,-8.3247 0.2518,-2.7139 0.6297,-5.3681 1.1367,-7.9673 0.5071,-2.5992 1.1429,-5.1442 1.9087,-7.6377 0.7659,-2.4936 1.6614,-4.9361 2.6895,-7.333 1.0281,-2.3969 2.188,-4.7485 3.4819,-7.0576 1.294,-2.3092 2.7229,-4.5767 4.2862,-6.8072 1.5632,-2.2304 3.26149,-4.4237 5.09761,-6.5844 1.83613,-2.1608 3.80987,-4.2882 5.92237,-6.3882 1.5125,-1.4875 3.04336,-2.8989 4.59668,-4.2349 1.55332,-1.3359 3.1292,-2.5962 4.72998,-3.7837 1.60078,-1.1875 3.22598,-2.302 4.88086,-3.3442 1.65488,-1.0422 3.33955,-2.0121 5.05517,-2.9121 1.71563,-0.9 3.4626,-1.7308 5.24561,-2.4917 1.783,-0.761 3.60098,-1.4522 5.45801,-2.0772 1.85703,-0.625 3.75322,-1.1836 5.69091,-1.6757 1.9377,-0.4922 3.91788,-0.9178 5.94288,-1.2803 2.64999,-0.475 5.26826,-0.8212 7.86181,-1.0357 2.59355,-0.2144 5.16172,-0.2974 7.71094,-0.249 z"
               style="fill:#2545fb;fill-opacity:1;stroke-width:0.1"
               id="path29" />
          </g>
        </g>
      </g>
    </g>
  </g>
</svg>
